<?xml version="1.0" encoding="utf-8"?>
<!-- Generator: Adobe Illustrator 28.0.0, SVG Export Plug-In . SVG Version: 6.00 Build 0)  -->
<svg version="1.0" id="katman_1" xmlns="http://www.w3.org/2000/svg" xmlns:xlink="http://www.w3.org/1999/xlink" x="0px" y="0px"
	 viewBox="0 0 1190.55 841.89" style="enable-background:new 0 0 1190.55 841.89;" xml:space="preserve">
<style type="text/css">
	.st0{fill-rule:evenodd;clip-rule:evenodd;}
</style>
<path class="st0" d="M389.11,333.46h-47.96v174.08h81.53V474.7h-33.57V333.46z" fill="#FFFFFF"/>
<path class="st0" d="M478.85,333.46h-47.96v174.08h81.53V474.7h-33.57V333.46z" fill="#FFFFFF"/>
<path class="st0" d="M189.66,335.43c-1.26-1.35-3.08-1.97-4.94-1.97h-64.68c-1.86,0-3.68,0.62-4.94,1.97
	c-4.47,4.76-11.69,12.96-17.72,20.72c-0.93,1.2-1.39,2.83-1.39,4.33V480.5c0,1.52,0.45,3.14,1.39,4.33
	c6.02,7.77,13.24,15.96,17.7,20.73c1.26,1.35,3.08,1.97,4.94,1.97h64.68c1.86,0,3.68-0.62,4.94-1.97
	c4.46-4.76,11.68-12.96,17.7-20.73c0.93-1.2,1.39-2.83,1.39-4.33v-48.2h-43.8v46.24H139.8V362.46h25.14v46.24h43.8v-48.2
	c0-1.52-0.45-3.14-1.39-4.33c-6.02-7.77-13.24-15.96-17.7-20.72h0.01L189.66,335.43L189.66,335.43z" fill="#FFFFFF"/>
<path class="st0" d="M312.36,335.43c-1.26-1.35-3.08-1.97-4.94-1.97h-64.68c-1.86,0-3.68,0.62-4.94,1.97
	c-4.46,4.76-11.68,12.96-17.7,20.72c-0.93,1.2-1.39,2.83-1.39,4.33v147.04h43.8v-51.28h25.14v51.28h43.8V360.5
	c0-1.52-0.45-3.14-1.39-4.33C324.03,348.39,316.82,340.2,312.36,335.43L312.36,335.43L312.36,335.43z M262.51,427.31v-64.84h25.14
	v64.84H262.51z" fill="#FFFFFF"/>
<path class="st0" d="M815.65,478.54h-25.14V333.46h-43.8V480.5c0,1.52,0.45,3.14,1.39,4.33c6.02,7.77,13.24,15.96,17.7,20.73
	c1.26,1.35,3.08,1.97,4.94,1.97h64.68c1.86,0,3.68-0.62,4.95-1.97c4.46-4.76,11.68-12.96,17.7-20.73c0.94-1.2,1.39-2.83,1.39-4.33
	V333.46h-43.8L815.65,478.54L815.65,478.54z" fill="#FFFFFF"/>
<path class="st0" d="M717.54,335.43c-1.26-1.35-3.08-1.97-4.94-1.97H623.9v174.08h88.69c1.86,0,3.68-0.62,4.94-1.97
	c4.46-4.76,11.68-12.96,17.7-20.73c0.93-1.2,1.39-2.83,1.39-4.33v-120c0-1.52-0.45-3.14-1.39-4.33
	c-6.02-7.77-13.24-15.96-17.7-20.72V335.43z M692.83,436.02v42.52h-25.12V362.46h25.12V436.02z" fill="#FFFFFF"/>
<path class="st0" d="M1038.55,333.46h40.95v75.89c0,1.48-0.51,2.92-1.47,4.07l-28.72,34.72v59.4h-47.17v-59.4l-28.64-34.72
	c-0.96-1.15-1.47-2.59-1.47-4.07v-75.89h40.86v64.7l10.65,12.63h4.42l10.58-12.63V333.46z" fill="#FFFFFF"/>
<path class="st0" d="M545.33,369.07c-0.56-0.6-1.38-0.88-2.2-0.88h-32.74c-0.83,0-1.65,0.28-2.2,0.88c-2,2.12-3.62,4.2-6.32,7.67
	c-0.41,0.53-0.62,1.26-0.62,1.93v54.32c0,0.68,0.21,1.4,0.62,1.93c2.69,3.47,4.32,5.54,6.32,7.67c0.56,0.6,1.38,0.88,2.2,0.88h32.74
	c0.83,0,1.65-0.28,2.2-0.88c2-2.12,3.62-4.2,6.32-7.67c0.41-0.53,0.62-1.26,0.62-1.93v-54.32c0-0.68-0.21-1.4-0.62-1.93
	C548.96,373.27,547.32,371.2,545.33,369.07z M532.7,413.5v13.73h-11.91v-42.81h11.91V413.5z" fill="#FFFFFF"/>
<path class="st0" d="M560.6,385.67v57.79h19.57v-24.85h20.95v-17.48h-20.95v-15.46h23.65v-17.48H560.6V385.67z" fill="#FFFFFF"/>
<path class="st0" d="M963.49,333.46h-25.38H894.3h-25.47v35.64h25.43v138.43h43.79V369.11h25.43V333.46z" fill="#FFFFFF"/>
<path d="M1073.22,485.98h10.36c0.84,0,1.49,0.22,1.94,0.66c0.46,0.44,0.7,1.06,0.7,1.86v2.66c0,0.68-0.2,1.22-0.6,1.62
	c-0.4,0.4-0.96,0.6-1.7,0.6h-0.86l-0.01,0.44c0.29,0.05,0.53,0.17,0.71,0.38c0.2,0.21,0.41,0.55,0.62,1.02l2.12,4.44h-3.07
	l-2.52-5.49h-5.16v5.49h-2.52V485.98L1073.22,485.98z M1083.32,492.17c0.12,0,0.21-0.02,0.27-0.08c0.06-0.06,0.09-0.16,0.09-0.29
	v-3.44c0-0.12-0.03-0.21-0.09-0.27c-0.06-0.06-0.15-0.09-0.27-0.09h-7.58v4.16L1083.32,492.17L1083.32,492.17z" fill="#FFFFFF"/>
<path class="st0" d="M1079.5,505.3c6.77,0,12.27-5.49,12.27-12.27c0-6.78-5.49-12.27-12.27-12.27c-6.77,0-12.27,5.49-12.27,12.27
	C1067.24,499.81,1072.73,505.3,1079.5,505.3z M1079.5,507.54c8.01,0,14.5-6.49,14.5-14.5s-6.49-14.5-14.5-14.5
	c-8.01,0-14.5,6.49-14.5,14.5S1071.49,507.54,1079.5,507.54z" fill="#FFFFFF"/>
</svg>
