<?xml version="1.0" encoding="utf-8"?>
<!-- Generator: Adobe Illustrator 26.0.3, SVG Export Plug-In . SVG Version: 6.00 Build 0)  -->
<svg version="1.0" id="Layer_1" xmlns="http://www.w3.org/2000/svg" xmlns:xlink="http://www.w3.org/1999/xlink" x="0px" y="0px"
	 viewBox="0 0 1096.1 768.1" style="enable-background:new 0 0 1096.1 768.1;" xml:space="preserve">
<path d="M212.2,135.7c1.3-12.6,1.8-13.7,2.9-15c2.6-3.7,6.6-6.1,11.1-6.8c5.5-1.1,11.1-2.1,16.8-1.8c14.2,0.3,28.2,0,42.4,0
	c1.8-0.1,3.6,0.1,5.3,0.8c1.6,0.8,3.4,2.1,5.3,0.3c0.5-0.5,2.1-0.3,2.6,0.3c1.3,1,2.6,0.5,4,0.5c0.8,0,1.6-1.1,2.6,0
	c0.3,0.3,1.8-0.8,2.9-0.8c1.2-0.1,2.5-0.1,3.7,0h6.3c1.3,0,2.6,0.5,4,0.5c1.2,0,2.5-0.2,3.7-0.5h8.4c0.9,0.2,1.8,0.4,2.6,0.8
	c0,0,0.5-0.5,0.8-0.5h24.2c0.3,0,0.8,0.5,1,0.8c3.6-1.3,7.5-1.3,11.1,0c0.5-0.3,1.3-0.8,1.8-1l1.1,1c2.4-1.6,5-0.5,7.6-0.8
	c2.4-0.3,4.7,0.5,7.4-0.8l3.2,1.6c3.4-1,6.9-1.8,10-0.3c0.9-0.4,1.9-0.6,2.9-0.8h8.9c0.7-0.1,1.5,0.1,2.1,0.5c2,1,4.3,1.1,6.3,0.3
	c2.4-0.8,4.7-1.1,6.6-0.3c1.6,0.8,2.4-1.6,3.4-0.3s2.6,0.8,3.9,0.8s2.9,0.5,3.7-0.8c2.4,0.3,5-0.8,7.1,0.8c1.3,1.1,2.9-1.3,4.2,0
	c0.8-1,1.8-0.8,2.9-0.8h34.8c1.1,0.1,2.1,0.2,3.2,0.5c0,0,0.3-0.5,0.5-0.5c3.2,0.3,6.3-0.8,9.5,0.8c1.3,0.8,3.2-0.3,4.7-0.3
	c2.6-0.3,11.6-0.8,14-0.3c0.3,0,0.5,0.5,0.8,0.5c2.1-0.8,6.3-1,8.7-1c4.7,0.3,9.2,0,14,0c1.1,0,2.1,0.5,3.2,0.5
	c0.9,0,1.8-0.2,2.6-0.5c0.4-0.2,0.8-0.4,1.3-0.5c0.9,0.3,1.7,0.5,2.6,0.5c4,0,7.6,0.3,11.6,0c1.8,0,3.4,1,5.3,0.3
	c1.6-0.5,3.7,0,5.5,0h29.2c1,0,2.6,0.5,3.4-0.8c1.8,1,3.7,2.1,6.1,3.7h5l5.3-2.6c2.6,0.3,5.8-0.8,8.7,0.8c0.3,0.3,1.1-0.3,1.6-0.3
	c2.7-1.1,5.8-1,8.4,0.3c0.9-0.3,1.7-0.6,2.6-0.8c1.1-0.5,2.1,1.3,3.4,0.3c0.8-0.8,2.6-0.3,4.2-0.3h17.4c1.6-0.3,3.2,0.5,4.7-0.8
	c0.5-0.5,2.4,0.5,3.7,0.8c1.3,0,2.6-1.8,3.7-0.5c1.3,1,2.1-1.3,3.4,0.3c0.5,0.5,2.4,0.3,3.4,0.5c1.3,0.3,2.6-0.8,3.7-0.8
	c4.9-0.3,9.8-0.3,14.7,0h2.9c1.6,0,3.4-0.8,4.7,0.8c0.3,0.3,1.6,0,2.4-0.5c0.9-0.7,2.3-0.6,3,0.3c0,0.1,0.1,0.1,0.1,0.2
	c0.8-0.3,1.3-0.8,2.1-0.8h16.9c1.3,0,2.4,1.3,4,0.3c1-0.8,2.9-0.3,4.5,0c1,0,1.8,0.5,3.4,0.8c0.3,0,0.8-0.5,1.6-0.8
	c0.5,0.3,0.8,0.8,1.3,0.8c2.3-1,5-1.1,7.4-0.3c2.1,0.8,4.7,0.8,7.6,1c1.1-0.5,2.1-1,3.2-1.6c2.6,1.3,5.5,1,8.4,0.5
	c0.7-0.3,1.4-0.5,2.1-0.5c6.3,0,12.4-0.5,18.7,0.3c2.9,0.3,5.5,0.8,8.4,0.8c1.1,1.6,2.4-0.5,2.9,0c1.3,1.1,2.6,0.8,4,0.8
	c1.3,0.3,2.9-1.1,3.2-0.8c1.6,1.3,2.6-0.8,4,0l3.2,1.6l0.8-0.8l1,1.1c0.6-0.4,1.2-0.8,1.8-1.1h0.5c1.3,0.6,2.6,1.2,4,1.6
	c1.8,0.5,3.7,2.4,5.8,0.3h12.1c0.5,0,0.8,0.8,1.3,1c0.6-0.4,1.1-0.8,1.6-1.3c2.9,1.1,5.3,3.2,7.6,5c2.5,1.6,4.3,4,5.3,6.8
	c0,0.3-0.3,0.5-0.8,1.3c0.5,0.7,1.2,1.3,1.8,1.8c0,0.3,0.3,0.5,0.3,0.8c-0.3,2.2,0,4.5,1,6.6c1,2.4,1.1,5.1,0.3,7.6
	c-0.8,2.1-0.5,4.5-0.3,6.8c0.3,2.1-0.8,4.2,0.8,6.3c0.5,0.5-0.3,1.8-0.3,3.4c0.5,1.1,0.5,1.1,0.5,3.9l1.6,1.6
	c-0.5,1.1-1,2.1-1.6,3.2c0.4,1.1,0.6,2.3,0.8,3.4c0.3,1.3-0.3,2.9,0,4.2c0.5,1.3-1.6,1.8-0.5,3.2c0.8,1.1,0.3,2.6,0.3,4v3.4
	c1.8,2.4,4.5,2.6,6.8,2.4c2.4-2.4,5.3-2.9,8.4-2.6c0.4,0.4,0.7,0.8,1,1.3c1.8,1.3,3.2-1.1,4.5,0.3c1-0.8,2.4-1.9,3.7-2.9
	c0.3,1,0.3,1.8,0.5,2.9c1.1-0.3,1.8-1.6,2.9,0c0.7-0.3,1.4-0.7,2.1-1.1c0.5,1.1,1.1,2.9,1.8,2.9c2.4,0,0.8,1.8,1.6,2.6
	c1.3,1.3,0.8,2.6,0.3,4.2c-0.5,1.7-0.5,3.6,0,5.3c0.5,1.6,0.8,2.6,0,4.2c-0.7,0.7-0.6,1.9,0.1,2.5c0.2,0.2,0.4,0.3,0.7,0.4
	c-0.3,1.6-1.6,2.4-0.5,4.2c1.3,2.6,0.5,5.8,0.3,9.2l0.5,0.5c-1.3,0.8-2.4,1.6-4,2.6c0.3,1.1,0.5,2.1,0.8,3.2
	c-6.6,0.3-13.4,2.4-20.3,0.3c-3.2,1.8-7.1,0-10.8,1c-0.8,4.7,0.8,9.5-1.3,14.2c0.7,0.6,1.4,1.1,2.1,1.6c-0.5,1.8,0.5,3.7-1.1,5
	l1.8,1.8c-0.5,4.5,1.3,9.5-1.6,14c0.3,0.8,0.5,1.6,0.5,2.4v7.9c0,1.6-0.3,3.2,0.8,4.7c0.8,1.3,0.5,3.4-0.5,5.3
	c-0.8,1.5-0.7,3.3,0.3,4.7c-0.3,1.6-0.8,3.2-0.5,4.5c1.1,6,1.1,6.6,0,12.4c-0.5,2.4,0,5.3,0.3,7.6v1.3c-0.2,1.7-0.3,3.3-0.3,5
	c0,1.6-0.5,3.2,0,4.7s-0.3,2.6,0,3.9v9c0.2,1.3,0.5,2.6,0.8,4c0,0-0.8,0.5-0.8,0.8c0.5,3.7-1,7.6,0.8,11.3c-0.5,2.9,0.5,6-0.5,9
	c-0.9,2.7-0.7,5.6,0.5,8.2c-1.5,2.6-1.4,5.9,0.3,8.4c-2.4,2.4-0.3,4.2,1,6.3l-2.1,4.2c0.5,2.1,1.1,5.3,1.8,9
	c-0.6,0.2-1.1,0.5-1.6,0.8v10.3c2.9,2.9,6.8-0.3,9.7,2.1c6.8-2.1,13.7,0,20.5,0.3c-0.3,1-0.5,2.1-0.8,3.2c1.3,1,2.6,1.8,4,2.6
	l-0.8,0.8c1.1,2.1,0.3,4.2,0.8,6.3s-2.6,4.2,0,6.3c-0.3,1.3-1.8,2.4-0.5,4.2c0.5,1.1,0.5,2.3,0,3.4c-0.8,1.9-0.8,4.1,0,6.1
	c0.8,2.1,0,4-2.1,6.3c-0.8,0.9-1.4,2-1.8,3.2c-0.6-0.4-1.2-0.7-1.8-1.1c-0.8,0.8-1.8,1.3-2.9-0.5c-0.3,1-0.3,1.8-0.5,2.9h-0.4
	c-0.5-0.3-1-0.5-1.6-0.5c-0.8-0.3-0.8-2.6-2.6-1.1c-0.3,0.3-1.8-0.5-2.6-1c-0.7,0.6-1.3,1.3-1.8,2.1h-4c-1.6-0.8-3.2-1.6-5-2.6h-3.7
	c-0.3,1.9-0.5,3.7-1,6.1c0.3,0.5,1.8,1.8-0.3,3.4c0.5,1.1,1.1,2.2,1.8,3.2c-1.1,1.6-1.8,3.4,0,5.5c-1.8,2.4-0.5,5.3-1.1,7.9
	c-0.8,2.6,2.6,5,0.3,7.6c2.9,2.9-2.6,6.6,1,9.5c-1.3,2.4-1.6,4.5-0.3,6.3c-0.3,1.3-0.6,2.6-0.8,3.9c0.2,3.6-0.5,7.2-1.8,10.5
	c-0.5,1-1.1,2-1.8,2.9c-0.5,0.8-1,1.8-1.8,3.2c-2.1,1.7-4.3,3.3-6.6,4.7c-2.6,1.3-5.3,1.8-8.2,2.9c-0.3-0.3-0.8-0.5-1-1
	c-0.3,0.3-0.5,0.8-1,0.8c-3.4,0.5-6.8-0.8-10.3,0.8c-2.1-2.4-4,0.8-6.3,0.3c-2.2-0.4-4.4-0.4-6.6,0c-1.3,0-2.9,1.3-3.7,0.8
	c-1.3-1-2.6-0.8-4-0.8h-14.6c-1.3-0.8-2.6-1.3-3.2-1.6c-2.4,0.3-4.2,0.5-6,0.8c-3.7,0.3-7.6-0.5-11.3,0.8c-0.8,0.3-1.6-0.3-2.6-0.5
	c-2.1-0.5-4.2-0.8-6,0.5c-2.1-1.1-4.6-1.2-6.8-0.3c-1.8,0.5-3.7,0.8-5.5-0.5c-0.5,0.3-0.8,0.5-1.3,0.8c-1.7-0.4-3.5-0.7-5.3-0.8
	h-32.8c-1,0-2.4,0.5-3.4-0.8c-1.6,1.8-3.7,0.8-5.8,0.8c-2,0.1-4,0.1-6.1,0c-1.8,0-4-0.5-5.8,0.5c-0.6-0.3-1.2-0.6-1.8-0.8
	c-0.6-0.3-1.2-0.4-1.8-0.5c-1,0.3-2.1,0.5-3.2,0.5h-13.4c-0.8,0-1.6,0.5-2.1,0.5c-2.6-0.3-4.7-0.8-7.6-1.1c-5.3,1.1-10.8,1-16.1-0.3
	l-0.8,0.8c-2.1-2.4-4,0.8-6.3,0c-2.1-0.5-4.5,0.8-6.6-0.8c-1.8,1.3-4,0.5-6,0.8h-6.8c-2.1,0-4.5,0.3-7.1-0.5c0,0.3-0.5,0.8-1,1.6
	c-3.7-0.3-7.4,0.5-11.1-0.8c-1.1,0.3-2.3,0.6-3.4,0.8h-28.4c-1,0-2.1,0.3-2.9-0.8c-0.4-0.3-0.9-0.3-1.3,0c-2.6,1.8-5,0.3-7.6,0
	c-2.1-0.3-3.9,0.5-6,0.8c-3.3,0.1-6.5-0.1-9.7-0.8c-3.2-0.5-6.3,0.8-9.5-0.8c-1.6,1.1-3.4,0.8-5,0.8c-1.1,0-1.9-0.5-3.4-0.8
	c-0.4,0.4-0.8,0.7-1.3,1.1l-2.1-1.1c-1,1.6-2.4-0.3-4,0.3c-2.4,0.8-5,0.5-7.6,0.5c-1-0.2-2-0.5-2.9-0.8c-0.3,0.3-0.5,1.1-1,0.8
	c-3.2-0.3-6.3,1.1-9.5-0.8c-0.7-0.2-1.5-0.1-2.1,0.3c-2.6,0.8-2.9,0.8-5.5-0.3c-3.1,1.2-6.5,1.4-9.7,0.5c-0.8-0.3-1.6-0.5-2.1-0.3
	c-6.1,1.3-6.9,1.3-12.6,0c-0.8-0.1-1.6-0.1-2.4,0c-0.2,0.7-0.6,1.5-1.1,2.1c-0.9-0.6-1.8-1.3-2.6-2.1c-0.3,0.3-0.7,0.6-1,0.8
	c-0.5-0.5-1-1-1.3-1.6c-1.2,0.2-2.3,0.5-3.4,1c-0.3,0.3-0.3,0.8-0.5,1.3c-2.1-0.8-4.2-2.1-6.6-1.6c-2.3,0.4-4.6,1-6.8,1.8
	c-0.3-0.5-0.6-1-0.8-1.6c-1.6,0.3-2.6,0.5-4,0.8c0-1-0.3-1.8-0.3-2.9c-3.7,0-6.6,1.8-10,3.7c-4.2,1.3-9-2.4-13.7-0.3
	c-0.3,0-0.5-0.5-0.8-0.8c-0.3,0.3-0.8,0.5-1.1,1c-0.5-0.3-1.3-1-1.8-1c-1.8,0.3-3.7-0.5-5.3,0.5c-0.5,0.5-2.1-0.3-3.7-0.5
	c-2.4,1-14.8,1.3-17.4-0.3c-1.8,1.1-1.8,1.1-3.9,0.3l-3.2,1.6c-1-0.2-2-0.6-2.9-1.1c-1.1-0.5-2.1,1.3-3.4,0.3c-0.8-0.8-2.6,0-4.2,0
	h-4.2c-1,0-2.4-0.5-3.4,0.8c-0.3,0.3-1.1,0.3-1.3,0.3c-1.6-1.6-3.2,0.8-5.3-0.5c-1.9-1.1-4.4-0.9-6,0.5c-0.9-0.4-1.9-0.7-2.9-0.8
	c-3.7,0-7.1-0.5-10.8,0c-2.2,0.4-4.4,0.7-6.6,0.8c-0.8,0-1.8-0.8-2.4-0.5c-1.1,1.1-2.1,0.5-3.2,0.5c-0.8,0-1.6-0.8-2.4-0.8
	c-1.1,0-2.4-0.5-3.4,0.5c-0.8,0.5-1.8,0.6-2.6,0.3c-0.8-0.3-1.6-0.8-2.6,0c-0.8,0.5-1.6-1.8-2.4,0c-1.5-0.6-3.1-0.9-4.7-1
	c-1.3,0-2.9,0.5-4.5-0.5c-0.8-0.5-1.8-0.6-2.6-0.3c-4.5,1.6-9-0.5-13.7-0.3c-4.8,0.4-9.7,0.4-14.5,0h-4.5c-1.8,0-3.7,0.3-5.8-0.8
	c-1.5-0.4-3-0.4-4.5,0c-1.3,0-2.4,0.5-3.7,0.5c-1.6,0-3.2-0.8-4.5-0.3c-2.6,1-5.3,0.5-7.9,0.8c-1.8,0.3-3.4-1.1-5.5-0.5
	c-1.6,0.3-3.7-0.3-5.5-0.5s-4,0.8-5.8-0.8c-3.2,2.1-5.5-2.1-8.4-1.3c-2.4-1.8-4.7-3.4-7.1-5.3c-1.7-1.4-2.9-3.4-3.4-5.5
	c-0.8-2.6-2.4-5-2.4-7.9c0-0.3-0.3-0.8,0-1c1.3-1.6-0.3-2.6-0.5-4.2c0.3-0.3,0.5-0.8,0.8-1l-1-1.1c0.3-0.8,0.8-1.6,1-2.4
	c-0.2-0.6-0.6-1.1-1-1.6c0.5,0,0.8-0.3,1.6-0.3c-0.5-2.1-0.8-4.2-1.3-6.9v-0.3c1.6-1.6,0-4,1-5.8c1.1-1.6,0.8-3.2,0-5
	c-0.5-1.6-0.3-3.7-0.3-5.5c0-1.1,0.8-1.9,0.8-2.9s-0.8-1.8-0.8-2.9c0-0.5,0.5-1,0.5-1.6c0.3-0.8,0.4-1.7,0.3-2.6
	c-0.6-1.3-0.9-2.8-0.8-4.2v-5c-2.1,0-4.5-0.8-6.6,0.5c-0.3,0-0.5-0.3-1.1-0.3c-1.5-0.1-3-0.1-4.5,0c-2.6,1-5.5,0.3-8.2,0.5
	c-1.3-1.6-3.2-0.5-4.5-0.8c-0.8-1.1-1.6-2.1-2.1-2.9c-0.9,0.4-1.8,0.8-2.6,1.3c-2.4-5.3-3.4-12.6-1.6-16c-1.8-3.2-0.5-6.6-0.8-9.8
	c0-1.3-0.3-2.9,1.1-3.9c-1.9-2.6-1.3-5.5,0.3-8.4c1.6-0.5,3.2-0.8,4.5-1.3c1.6-1.3,2.9-2.4,3.9-3.4c2.1,1.6,3.9,1,6.3,0.3
	c1.8,2.6,4.7-1.3,7.4,0.3c2.6,1.3,5.3-1.3,8.7,0c-0.5-0.6-0.9-1.2-1.3-1.9c0.5-2.4,1.8-5,0-7.4V407c0.4-1.2,0.6-2.4,0.8-3.7
	c0-1.3-1.3-2.1-0.5-3.7c0.5-0.8-0.3-2.4-0.3-3.4v-15.3c0-1-0.3-2.1,0.8-2.9c-0.9-0.7-1.2-1.9-0.8-2.9c0.3-1.6,0-3.2,0.8-4.7
	c0.8-1.7,0.8-3.6,0-5.3c-0.8-1.6-1.1-3.7-0.5-4.7c1.3-2.1,0.3-4.5,1.6-6.3c1-1.8-0.5-3.9-1.6-5.8c1.6-2.9,1-6,0.8-9.2
	c-0.8-4.5-1-4.5,0-8.2c0.2-0.9,0.3-1.8,0.3-2.6c-1-5.5-1-5.5,0-10.5v-0.5c0.3-4.7,0.5-9.5,1.1-14c0-1-1.6-1.8-0.3-3.2
	c0.3-0.3-0.5-1.8-0.5-2.6s0.8-1.9,0.5-2.1c-0.8-1-0.5-2.1-0.5-3.2v-2.9c-0.2-1-0.5-1.9-0.8-2.9c0.4-1.1,0.7-2.2,0.8-3.4v-10.3
	c0-1,0.2-2,0.5-2.9c-0.3-1.6-0.5-3.1-0.5-4.7v-30.6c-2.9-0.3-5.5-0.5-8.2-0.5c-0.3,0-0.5-0.2-0.5-0.5c-6.6,2.1-13.2,0.3-20-0.3
	c0.4-0.9,0.8-1.9,1-2.9c-1.3-1.1-2.6-1.8-4-2.9c0.8-3.7-0.8-7.6,1-11.3c-2.1-2.1,0.3-4.7-0.8-7.4c-0.5-1.3-0.8-3.4,0.8-4.7
	c-1.6-1.3-0.8-3.2-0.8-4.7c0-1.8,0.8-3.4,1.1-5c0.5,0,1-0.3,1.6-0.3c0-0.8,0.3-1.6,0.3-2.6c1.1,0.3,2.1,0.3,3.7,0.5
	c0.8-0.5,1.8-1.3,3.2-2.1c0.9,0.9,1.6,1.9,2.4,2.9c0.8-0.5,1.3-0.5,2.1-1.1c0.8,0.3,1.8,0.5,2.9,0.8c0.2-0.6,0.5-1.3,0.8-1.9
	c2.6-0.3,5.3-0.3,7.6,1.6c1.1,0.8,2.9,0.8,4.5,1.3l1.6-1.6c-0.3-2.6,0.5-5.3-1-7.9c-0.3-0.6-0.3-1.3,0-1.8c0.5-1.3,1.8-2.6,0.3-3.9
	c1-1.3,0.8-2.6,0.8-4.2v-9.8c0-1.5-0.2-3-0.5-4.5c0-0.4,0.1-0.8,0.3-1.1c0.8-1.8,0.5-4-0.8-5.5c0.3-0.5,0.8-0.8,1-1.3
	c0-1.3-1.8-2.4-0.5-3.9c0.8-1.1,0.5-2.4,0-4c-0.5-1.3,0.3-2.9,0-4.5c-0.3-1.6-0.5-2.6,0.3-4.2c0.8-1,0.3-2.9,0.3-4.5
	C212.1,127.5,212.1,125.9,212.2,135.7c-0.1,10.5-0.1,10.5-0.3,10.7c0.3,0.3,0.5,0.5,0.5,0.8l0.3-0.3
	C212.7,146.5,212.5,146.3,212.2,135.7z M439.9,118.1v-0.8h-1.6c-0.5-0.3-1.1-0.7-1.6-1.1c0,1.1,0.3,1.6,0.3,2.1c1,0.1,1.9-0.3,2.6-1
	l0.3,0.3c0.3-0.3,0.5-0.5,0.8-0.5l-0.3-0.3C440.2,116.8,440.2,117,439.9,118.1z M582.7,491.4c1.9,1,4.1,1.1,6,0.3
	c0.8-0.3,1.8-0.5,2.1-0.3c1.8,1.6,4,0.8,5.8,0.8c1.3,0,2.9-0.8,4-0.3c2.1,1,3.4-0.3,5-0.3c1.6,0,3.4,1.3,5.3,0.8
	c0.5,0,0.8-0.5,1-0.5c2.6-0.5,5.3-0.8,7.9,0.3c1.8-1.6,4-0.8,5.8,0c1.3-0.3,2.6-1,3.2-0.5c1.6,1.3,3.4,0.8,5.3,0.8h10
	c1.6,0,3.4-1,4.5-0.5c1.8,0.8,3.4,0.5,5,0.5h31.6c1.8,0,3.7,0.8,5.3-0.8c0.6-0.3,1.3-0.3,1.8,0c1.3,1.1,2.4,1.3,3.7,0
	c0.3-0.3,1.6-0.5,1.8-0.3c1.6,1.8,3.2,0.3,4.7-0.3c0.5,0.5,0.8,0.8,1.1,0.8c0.8-0.3,1.3-0.5,2.1-0.8c1.3-0.3,2.7-0.5,4-0.5
	c1.3,0,2.4,0.3,3.7,0.3h51.6c1.2-0.1,2.3-0.3,3.4-0.8c1,0.3,1.8,0.5,2.6,0.8c1.3,0.3,2.9-0.5,4.5,0.8c1,0.5,2.2,0.5,3.2,0
	c2.4-1.3,4.7-0.8,7.1-0.8H802c1.3,0,2.6-0.5,3.7-0.5c1,0.3,2.1,0.5,3.2,0.5c5.3,0,10.5,0,15.5,1.8c0.8,0.3,1.6,0.3,2.4,0
	c1.3-1.6,2.9-0.8,4.2-0.8h5.5v-35.6c-0.6-1.1-1.3-2-2.1-2.9c0.8-0.3,1.3-0.5,2.1-0.8c-0.4-2.6-0.7-5.3-0.8-7.9
	c0-2.9-0.8-5.8,0.8-8.4c-1.6-2.6-0.5-5.3-0.8-8.2c0-2.9-0.8-5.8,0.8-8.2c-0.3-0.7-0.6-1.4-0.8-2.1v-31.1c0-1.1,0.8-1.6,0.5-3.2
	c-0.8-2.6-0.5-5.5-0.8-9c0.1-0.3,0.3-0.5,0.5-0.8c-0.4-1.2-0.7-2.4-0.8-3.7c0.3-3.2-0.8-6.6,0.8-9.7c0.3-0.3-0.3-1.1-0.3-1.6
	c-0.3-0.8-0.5-1.7-0.5-2.6v-34.7c0-1.3,0.5-2.4,0.3-4c-0.5-3.7-1-7.6,0.5-11.1c-0.3-0.3-0.5-0.8-0.8-0.8c0.5-1.3,1-2.6,1.6-4
	c-0.9-2.2-1.4-4.5-1.6-6.8v-23.2c0-2.1-0.5-4.5,0.8-6.6c0.5-0.8-0.3-2.4-0.5-4c0.3-1.3,0.5-2.6,0.8-3.7c-0.7-0.9-1.5-1.8-2.4-2.6
	c2.1-3.7,1.1-7.4,1.1-10.8c0-3.7,0.8-7.4-0.8-10.8c2.1-1.1,0.3-2.4,0.3-2.9c0.4-1.3,0.6-2.6,0.8-3.9v-16.3c0-1.8-1.3-3.9-0.8-5.5
	c0.5-1.5,0.8-3.1,0.8-4.7v-7.4c0-1.3,0.5-2.6-0.8-3.9c-0.3-0.3,0.3-1.6,0.5-2.4s0.5-1.8,0.3-2.1c-1.3-1-0.8-2.6-0.8-3.9V172
	c-1-1.3-2.1-2.4-3.2-3.7c0.6-0.4,1.2-0.6,1.8-0.8c0.5-1.3,0.8-2.4,1.1-3.2c-0.3-1.3-1.1-2.9-0.5-3.7c0.8-1-0.5-2.1,0.5-2.9
	c-0.6-0.2-1.3-0.5-1.8-0.8c-4.5,0.8-9,1.1-13.2-0.3c-2.4,1.3-6.1,1.1-9.2,0.3c-2.6-0.8-5.5-2.6-7.9-0.5c-3.4-1-7.1-1.1-10.5-0.3
	c-2.4,0.5-5,1.1-7.4-0.5c-2.4,1.1-4.2,1.3-6.3,0.5c-0.8-0.3-1.6-0.8-2.1-0.5c-2.1,1.6-4.5,0.8-6.6,0.8s-4.5-0.5-6.6-0.5
	c-2.1-0.3-4.2,0.8-6.6,0.8c-2.6-0.3-5.5,0.5-7.9-0.8c-0.9-0.3-1.8-0.3-2.6,0c-1.3,0.5-2.6,1.6-4,0.3c-1-1.3-2.6,1.6-4,0
	c-2.9,0.3-6-0.8-8.7,0.8c-1-0.3-2.1-0.5-2.9-0.8c-2.4-0.8-4.7,2.4-7.1,0.3c-1.6,1.6-3.7,0.3-5.3,0.8c-1.8,0.8-3.4-0.3-5.3,0h-11
	c-0.9-0.1-1.8-0.4-2.6-0.8c-1.2,0.4-2.4,0.6-3.7,0.8h-5.5c-1.6,0-3.2,0.5-4.7-0.8c-1.6,1.6-3.4,0.8-5.3,0.8h-40.5
	c-2.1,0-4.5-0.5-6.6,0.8c-0.5,0.3-1.8-0.5-2.9-0.5c-1.6,0-3.2-0.5-4.2,0c-1.3,0.5-2.6,0.8-3.7,0c-1.8-1.3-3.4-0.3-4.5,0.3
	c-1.6-0.3-2.9-1.1-3.4-0.5c-1.6,0.8-2.6,1.3-4,0c-2.6,0.3-5.5-0.8-7.9,1.1c-1.2-1.1-3-1.3-4.5-0.5c-0.9,0.5-1.9,0.7-2.9,0.5
	c-1.6-1.3-3.4-0.8-5.3-0.8H564c-2.4,0-5.3-0.5-7.4,0.5c-2.6,1.3-4.2-1.3-6.3-0.5c-1.6,0.7-3.4,0.4-4.7-0.8c-0.6-0.3-1.3-0.3-1.8,0
	c-1,1-2.6,1.1-3.6,0.1c0,0,0,0-0.1-0.1c-0.5-0.3-1.6,0.3-2.4,0.3c-0.8,0-1.6,0.3-2.6,0.3c-0.8,0-1.6-0.5-2.6-0.5h-36.6
	c-0.8,0-1.8,0.5-2.6,0.5c-4-0.8-7.9-1.3-11.9,0.3c-0.4,0.3-0.9,0.3-1.3,0c-1.3-1.2-3.1-1.5-4.7-0.8c-1.6,0.5-2.9,0-4.5,0
	c-0.7,0.1-1.3,0.4-1.8,0.8c-2.6-1.6-5.5-1.3-8.4-0.5c-0.7,0.3-1.4,0.4-2.1,0.5c-1-0.5-2.1-1.6-2.9,0c-0.8-1.3-2.1-0.8-3.4-0.8h-16.8
	c-1.5,0-3.1,0.2-4.5,0.8c-2.1,0.8-3.2-1-5-0.8c-4,0.8-8.2-0.5-12.1,1.1c-0.8,0.3-2.1-0.5-3.4-0.8c-0.9,0.4-1.9,0.7-2.9,0.8
	c-3.9,0.3-7.9-0.5-11.6,1.1c-0.8,0.3-1.6,0.3-2.4,0c-1.8-1.3-4.2-0.8-6-0.8h-5.5c-1.9,0-3.7-0.3-5.5,0.8c-1.8-2.1-3.2,0.5-5,0.3
	c-3.6-0.3-7.2-0.3-10.8,0c-3.4,0.3-6.8-1.8-10.5,0h-0.8c-3.2-1.6-6.6-0.8-10-0.5c-1.6,0-2.9,1.1-4.5,0.3c-1.6-0.5-3.7,0-5.3-0.8
	c-1.2-0.7-2.6-0.9-3.9-0.5c-2.6,1.3-5.3,0.5-8.2,0.8c-1.8,0.3-3.7-0.3-5.8,0.8c-1,0.8-3.4,0.5-4.5-0.3c-1.3-0.8-2.6-0.5-4-0.5
	c-1.6,0-3.2,0.8-4.7,0.8l-12.6-0.8c-1.3-1.6-3.7,0-4.7-1.1c-1.8-2.1-3.4,0.3-5,0.3c-1.9,0.1-3.7,0.2-5.5,0.5c-0.8-0.3-1.8-1-2.9-1.6
	c-0.5,0.8-1,1.3-1.6,2.1c-0.3-0.8-0.5-1.3-0.8-2.1h-4.5c-1.6,0-3.2,0.1-4.7,0.3c0.8,2.6-0.5,4.7,0,7.1s0,5,0.3,7.4
	c0,2.4-0.5,4.7,0.8,6.9c-0.8,1.3-1.3,2.6-2.1,3.9l1.3,1.3c-0.3,0.5-0.8,1.1-0.8,1.3c0.3,0.9,0.5,1.9,0.5,2.9c0.2,1,0.5,2,1,2.9
	c-1.6,2.4-3.2,4.5-3.7,7.1c2.6,5,5.3,9.7,2.9,15.8c-0.5,1.3-0.8,3.4,0.5,4.7c0.3,0.3-0.3,1.1-0.3,1.6c0.3,2.6-1,5-0.5,7.4
	c0.4,1.4,0.7,2.8,0.8,4.2v15.3c-0.1,1-0.4,2-0.8,2.9h0.3c0,1.4,0,2.8,0.3,4.2c-0.3,0.3-0.8,0.5-1,0.8c1,0.3,1.8,0.5,2.6,0.8
	c-1,4.7-1,4.7,0,7.4c-0.3,0.5-0.8,0.8-1,1.3v9.2c0,1.6,2.1,2.9,0,4.5c1.6,1.6,0.8,2.9,0,4.2c-0.3,0.7-0.3,1.4,0,2.1
	c1.3,1.3,0.8,2.9,0.8,4.2v23.2c0,2.4,0,5-1.3,6.9c-1.3,2.1-0.3,3.7,0.3,5c-0.3,1-0.8,1.6-0.8,2.4c0,3.2-0.3,6.3,0.8,9.5
	c0.5,1.8,0.8,4.2-0.5,6c1,1.9,0.5,4,0.5,6.1c0,0.5-0.8,1.3-0.5,1.8c1.3,3.7,0.3,7.6,0.5,11.3c-0.1,1-0.4,2-0.8,2.9
	c0.4,0.9,0.7,1.9,0.8,2.9c0.3,1.8,0.3,3.7,0,5.5c-0.3,1.8,0.5,3.9-0.5,5.8s0.5,3.4,0.5,5c0,0.3,0,0.8-0.3,0.8
	c-1.8,1.6,0,2.9,0.3,4.2c-0.3,0.5-1.1,1.1-1.1,1.6c0,2.1-0.5,4.7,0.5,6.3c1.3,2.4-1.6,4-0.5,6.1c0.3,0.5,0.3,1.3,0.5,1.6
	c1.3,1.6-0.3,2.6-0.3,4c0.9,3.4,1,7,0.3,10.5c-0.6,1.9-0.6,4.1,0,6c0.4,1.4,0.4,2.8,0,4.2c-0.5,1.6-1.1,3.4,0,4.7
	c1.3,1.8-0.5,2.6-0.5,4.2c2.6,2.6-0.3,5.3,0,8.2c0.3,2.9-0.8,5.8,1.1,8.4c-1.4,2.1-1.5,4.9-0.3,7.1c-0.5,2.6-1.6,4.7-1,6.6
	c0.8,3.4,0.3,7.1,0.5,10.5c0,1-0.5,2.6,0,3.2c1.6,2.1,0.5,4.2,0.8,6.3c0,0.8-0.8,1.6-1.1,2.4c0.5,0.9,0.9,1.9,1.3,2.9
	c0.8,0.3,1.6,0.8,2.4,1.3c3.1-1.3,6.6-1.3,9.7,0c1.6-0.8,4.5-1.6,5.5-0.8c3.7,2.4,7.9-0.5,11.3,1.8c3.4-2.1,7.6,0.5,10.8-2.1
	c0.8,0.7,1.5,1.5,2.1,2.4c-1,0.5-1.6,0.8-3.4,1.9h3.4l1.3-1.3c-0.3-0.3-0.6-0.6-0.8-1l1.3-1.3h7.9c0,0.8,0.3,1.6,0.3,2.6h5.8
	c1.6-2.4,3.4,0,5.5-0.8c1.6-0.5,3.7,0.3,5.8,0.5c0.6-0.2,1.1-0.5,1.6-0.8c1.1-0.3,1.8,1.3,2.9,0c0.8-0.5,2.4,0.3,3.4-0.8
	c0.7-0.3,1.4-0.3,2.1,0c1,1,2.4,0.8,3.4,0.8c2.9,0,5.8,0.5,8.4-1c0.3,0.3,0.8,0.5,1.1,1c0.3-0.3,0.6-0.6,1-0.8
	c0.3,0.3,0.8,0.5,1.1,0.8c0.9-0.4,1.9-0.6,2.9-0.8c1.6-0.3,3.4,0,4.7-0.5c1.8-1,2.9,1.1,4.7,0.5c0.9-0.3,1.9-0.5,2.9-0.5
	c0.8-0.3,1.9-0.5,2.1-0.3c1.3,1.6,3.2,0.8,4.7,0.8h63.7c1.8,0.1,3.5-0.1,5.2-0.8c1.7-0.7,3.7-0.5,5.3,0.5c0.7,0.3,1.4,0.3,2.1,0
	c2.1-1.1,4-0.8,6.3,0c2.1,0.7,4.3,0.6,6.3-0.3c1-0.5,3.2-0.8,4-0.3c1.3,1,2.6,0.5,4,0.8c1,0.3,2.4,0.5,3.4,0.8
	c0.6-0.4,1.2-0.8,1.9-1c0.5,0.5,0.8,1,1,1c1.6-0.2,3.1-0.8,4.4-1.6c1.9-1,2.9,1.3,4.7,0.8c1.1-0.3,1.9-0.5,2.9-0.8
	c2.4,1.3,5.3,1.5,7.9,0.5c1.8-0.5,3.7-1.1,4.7-0.5c2.9,1.3,6,0.5,9,0.8h6.6c0.8,0,1.3,0.5,1.6,0.5c1.3-0.3,2.4-0.3,3.4-0.5
	c1-0.2,2-0.5,2.9-0.8c1.1,0.4,2.3,0.6,3.4,0.8c2.6,0,5.3,0.3,7.9,0c1.6-0.3,2.6,1,4.5,0.3c1.3-0.8,3.4,0,5.3-1
	c0.9-0.2,1.8-0.1,2.6,0.3c1.8,1.1,3.4,0.3,5-0.5c2,1.2,4.4,1.4,6.6,0.5c1-0.3,2.6-0.5,3.4,0c2.1,1.1,4.2,0.8,6.3,0.5
	c5.8-1,6.1-1,11.3,0C580.1,492.2,581.1,491.7,582.7,491.4z M185.6,196l-0.8-0.8c-0.8,0.5-1.6,0.8-2.4,1.3l1.6,1.6
	C184.6,197.5,185.2,196.8,185.6,196z M908.3,198.4c0.1-0.2,0.2-0.5,0.3-0.8c-0.5-0.8-0.8-1.3-1.3-2.1l-0.3,0.3
	c-0.5,1.1,0.3,1.6,1,2.1C907.8,198.1,908.1,198.1,908.3,198.4L908.3,198.4z M908.1,450.1c-0.5,1-2.1,1.3-0.8,3.1
	C907.5,452.2,909.4,451.9,908.1,450.1z M250.4,462.7v3.2c0.5,0,1.1-0.1,1.6-0.3C251.5,464.6,251,463.7,250.4,462.7z M514.7,496.7
	h3.4c-0.2-0.5-0.3-1-0.3-1.6C516.8,495.6,515.7,496.1,514.7,496.7L514.7,496.7z M251.2,430.9h-0.5v2.9h0.5V430.9z M478.9,530.4h-0.8
	c0,0.8,0.3,1.6,0.3,2.4h0.5V530.4z M822,533.8V533c-0.8,0-1.6,0.3-2.4,0.3v0.5L822,533.8z M438.1,123.6v-0.5h-1.8v0.5H438.1z
	 M251.2,425h-0.5v1.9h0.5V425z M874.1,360.8v-0.3h-1.1v0.3H874.1z M873.3,376.1v0.3h1v-0.3H873.3z M654.8,152v0.3h1V152H654.8z
	 M651.6,114.7h-0.3v1.1h0.3V114.7z M504.7,116.5h-0.3v1h0.3V116.5z M519.5,496.7h0.3v-1h-0.3V496.7z M686.4,523.3V523h-1v0.3
	L686.4,523.3z M478.4,529.3h0.3v-1.1h-0.3V529.3z M507.4,117.6h0.3v-1h-0.3V117.6z M668.8,152.6v-0.3h-1v0.3H668.8z M876.5,256.8
	h0.3v-1h-0.3V256.8z M662.2,530.9v-0.3h-1v0.3H662.2z M252.5,207.6h0.3v-1.1h-0.3V207.6z M664.3,531.2h0.3v-1h-0.3V531.2z" fill="white"/>
<path d="M324.4,567.5c1.3,3.2,2.9,5.8,4,8.7c1,3,2.2,5.9,3.7,8.7c1.6,2.6,2.4,5.5,4,8.2c1.6,2.9,2.6,5.8,4.5,8.4s1.6,6.3,5.3,8.2
	c0.3-1.6,0.3-2.6,0.5-4c0.5-0.3,1.1-0.3,1.3-0.5c0.5-1.3,0.8-2.6,1.3-4c2.4-6.6,6-12.6,7.6-19.7c0.3-1.6,1.6-2.9,2.1-4.2
	c0.6-0.8,1.1-1.7,1.3-2.6c-0.3-3.4,2.1-5.5,4.2-7.6h22.6c1.8,0.1,3.5,0.4,5.3,0.8c-0.3,1.8-0.3,3.7-0.5,5.5v29.3
	c-0.1,1.8-0.1,3.7,0,5.5c0.3,1.8-1,4,0.8,5.8c-1.6,1.6-1.1,3.7-0.8,5c0.5,1.8,1.6,3.4,0,5.3c0.3,1.3,1.1,2.9,0.8,4
	c-1.3,3.2-0.8,6.3-0.8,9.5v7.4c0,2.1-0.5,4.5,0.8,6.6c0.5,0.8,0,2.4,0,3.7h-29.8c0.8-3.2-1.1-6.6,1-9.7c-1.8-2.1-0.8-4.7-0.8-7.1
	c0-1.8-0.5-3.7,0.8-5.3c0.3-0.5-0.3-1.8-0.8-3.4c0-0.3,0.5-0.8,0.8-1.6c-0.3-0.5-0.6-0.9-1-1.3c1.6-1.8,0.5-4,0-6.3
	c-0.3,0.5-0.5,1.1-0.8,1.6c-2.9,5.5-5.5,11.3-8.7,16.8c-1.8,3.2-3.4,6.3-5,9.5c-0.8,1.8-2.4,3.4-3.7,5c-0.5-0.3-1.3-0.3-1.3-0.5
	c-1.6-3.2-3.9-5.5-5-9.2c-0.9-2.6-2.2-5-3.9-7.1c-1.6-2.4-2.6-5-4.2-7.6c-1.3-2.3-2.9-4.5-4.7-6.3V641c0,0.5,0.8,1,0.8,1.6
	c-0.1,1.2-0.3,2.3-0.5,3.4c1.3,2.4,0.3,5.5,0.8,9h-28.7l-2.1-2.1c0-0.3,0.3-0.3,0.5-0.5c-0.3-0.8-0.5-1.7-0.5-2.6
	c0-0.8,1.1-1.6-0.3-2.6c0.3-0.5,0.8-1.3,1-1.8c-1.6-2.1-1-4.5-1-6.8s-0.8-5,0.8-7.1c-1.1-2.1-1.6-4.2-0.3-6.1
	c-0.3-1.6-1-3.2-0.5-4.5c0.3-1.3,1.6-2.6,0-4l1.8-1.8c-0.5-2.4-1.1-4.7-1.6-7.4c0-0.3,0.5-0.5,0.8-0.8c-0.8-3.4-1.8-6.8,0-10.3
	c-1.6-0.5,0-1.6-0.3-2.4c-0.3-0.7-0.4-1.6-0.3-2.4c0.8-3.2,0.8-3.2,0-7.1c0-0.5-0.3-0.8,0-1.3c0.3-1.8,1.3-3.7,0.8-5
	c-0.8-1.6-0.5-2.9-0.3-4.5c0.3-1.8-0.5-4-0.8-6C305.4,567.5,314.9,567.5,324.4,567.5z" fill="white"/>
<path d="M513.1,619.1c-0.3-1.1-0.6-2.1-1-3.2h-2.7c-0.3-0.5-0.5-0.5-0.5-0.8v-2.9c0-0.8,0.3-2.4-0.3-2.6c-1-0.8,0.3-1.3,0-2.1
	c-0.1-1.6,0.1-3.2,0.5-4.7c1.1-0.7,2.2-1.3,3.4-1.8c1.3-1.8,0-5.3,1.8-8.2c0,0-0.8-0.5-0.8-1.1c-1.2-5-1.4-10.2-0.5-15.3
	c0.3-1.3-0.5-2.1-0.5-3.2c-0.3-1,1.6-1.6,0.5-2.6c-0.3-0.3-0.3-0.5-0.8-1.3c1.2-0.4,2.3-0.8,3.4-1.3c-0.3-0.3-0.5-0.8-0.8-1h15.3
	c2.6,0.3,5.3-0.8,7.4,0.8c0.9-0.4,1.9-0.7,2.9-0.8h20c0.8,0,1.6,0.5,2.6,0.5h2.6c1.3-0.3,3.2-1,4-0.5c1.3,1.3,2.6-0.8,3.9,0.3
	c0.8,0.8,2.6,0.5,4,0.5c2.4,0.3,3.7,1.8,5.3,3.2v7.4c0,1.3,0.8,2.6,0.8,3.7s-0.8,2.1-0.8,3.4s0.5,2.4,0.5,3.7c0,1.5-0.2,3-0.5,4.5
	v4.2c0,0.7,0.2,1.4,0.5,2.1c-0.5,1.3-1.3,2.9-2.1,5c-1.3,1-3.2,2.4-4.7,3.4c3.4,1.2,6.2,3.6,8.2,6.6v22.4c0,1.8,0.3,4-0.3,5.8
	c-0.5,1.6,0.3,3.2,0.5,4.7c-1.9,1.8-3.4,3.4-5.3,5c-3.2,0.4-6.4,1-9.5,1.8c-0.8,0.1-1.6,0.1-2.4,0h-53.4c-0.2,0-0.4-0.1-0.5-0.3
	c-0.5-4-2.4-7.6-0.3-11.8c-0.4-0.8-0.7-1.7-0.8-2.6v-9.2c0-0.7,0.2-1.4,0.5-2.1c0.4-1.2,0.4-2.5,0-3.7
	C512.1,623.3,512,620.9,513.1,619.1z M553.4,641.2c0-2.4,0.3-4,0-5.3c-0.5-1.3,1.6-2.6,0.3-4c1.6-1.3-0.5-2.4-0.3-4
	c0.4-3.2,0.4-6.5,0-9.7c-0.1-1-0.4-2-0.8-2.9c-2.1,1.8-4,0.8-5.8,1c-2.6-2.4-4.2,0.3-6.1,1.3c1.1,0.8,1.4,2.3,0.6,3.4
	c-0.2,0.2-0.3,0.4-0.6,0.6c2.1,0.8-0.3,2.4,0.5,3.2c1.3,1.6-0.5,2.6-0.5,4c1.6,1.6,1.3,3.2,0,4.7c0.3,0.3,0.6,0.6,0.8,1
	c-0.3,1.6-0.5,3.2-1,5.5c1.8-1,3.4,1.3,5-0.5c0.5,0.4,1,0.8,1.6,1.1c1.1-0.3,2.1-1.1,2.9-0.8C550.8,640.2,551.8,640.7,553.4,641.2z
	 M554.5,583.3h-13.2c-0.5,3.2,0.5,6.6-0.8,9.2c1.6,2.9,0.3,6.1,1,9c4.2,2.1,8.4,1,12.9,1v-1.3c0.3-1-1.6-1.8-0.3-2.9
	c-1.6-1.1,0.3-2.1,0-2.9c0-1.8,1-3.7-0.8-5.3c1.3-1.3,1.4-3.3,0.3-4.7C554,584.8,554.3,584.1,554.5,583.3L554.5,583.3z" fill="white"/>
<path d="M488.1,650.2c-3.4,4-8.2,5.8-14,5.8H431c-3.5-0.1-7-0.9-10.3-2.4c-3.7-1.3-5.8-4.2-5.8-8.7c0.3-10,0-19.8,0-29.8
	c0-1.8,0.8-4-0.8-5.8c-0.3-0.3,0.8-1.6,0.5-1.8c-1.6-1,1-1.6,0.3-2.6c-0.5-0.8-0.5-1.6-1-2.4c-0.5-1,1.6-2.4,0-3.4
	c0.5-1.1,0.5-2.3,0-3.4c-0.3-1.2-0.3-2.5,0-3.7c0.3-1.6,0.5-3.2,0.8-5c0-0.3-0.5-0.5-0.8-0.8l1-1.1c-2.6-4.5,0-9.2,0-14
	c2.6-0.8,4.2-2.9,7.1-3.4c1.1-0.3,2.3-0.5,3.4-0.5h53.5c2.6,0,5.3,1,7.9,1.6c1,1.3,1.6,2.4,2.6,4c0.5,2.1-0.8,4.7,0.8,7.1
	c-0.3,0.3-0.6,0.6-0.8,1c0.3,1.6,2.1,3.4,0.3,5.3c1.3,1.8,0.5,3.7,0,5.8c-0.3,0.8,0.8,1.8,0.8,2.9c0,1.3-0.5,2.6-0.5,4.2
	c0.1,1,0.1,1.9,0,2.9c-0.5,3.4-0.5,5.8,0.5,8.2c-0.4,0.7-0.7,1.5-0.8,2.4c-0.1,1.2-0.1,2.5,0,3.7v4.2c0,1.3,0.5,3.2-0.8,4.2
	c1,0.6,1.3,1.9,0.7,2.9c-0.1,0.2-0.3,0.4-0.4,0.5c0.3,0.4,0.5,0.9,0.8,1.3c0.3,1.3,1,2.9,0.5,3.7c-0.8,1.3-0.5,2.6-0.5,4
	C489.2,641.2,490,645.7,488.1,650.2z M443.6,584.1v5.5c-0.1,1.8-0.1,3.7,0,5.5c0.3,1.2,0.4,2.4,0.3,3.7c-0.5,1.5-0.5,3.2,0,4.7
	c0.3,1.3-0.3,2.9-0.5,4.5v31.1c4,0.8,7.9-2.6,11.3,0.3c0.5-0.5,1-0.8,1.6-1.3c1.4,1.2,3.4,1.4,5,0.5c-0.3-1.3-1-2.4-1-3.7
	c-0.1-1.6-0.1-3.2,0-4.7c0-1.1,0-2.1,0.3-3.2c0.5-1.3-1-2.1-0.5-3.2c0.4-0.8,0.7-1.7,0.8-2.6c-0.3-0.8-0.6-1.7-0.8-2.6v-36.3
	c-2.9,0.3-5.5,0.8-8.2,0.8C449.7,584.4,446.8,584.1,443.6,584.1z" fill="white"/>
<path d="M795.4,602.8c-1.6,3.2-1.6,4.5-0.3,7.4c-0.8,1.8-1.8,3.4,0,5.3c-2.9,1.6-5.8,1.6-9,1.6h-23.1v22.9c0.8,0.4,1.6,0.8,2.4,1.3
	h28.4c0.8,0.8,1.3,1.6,2.4,2.6c-0.3,2.9,0.5,6.3-0.8,9.7c0.3,0.7,0.6,1.3,1.1,1.8c-0.5,0.3-0.8,0.5-1.1,0.5h-57.7
	c-1.6-0.1-3.2-0.4-4.7-0.8v-5.3c-0.1-1.8-0.1-3.7,0-5.5c0.3-1.6-1.8-3.2-0.3-4.7c-1.6-2.1,0.8-3.4,0.8-5c-1.6-5.8,1-12.1-1.8-18.2
	h-2.1c-0.8-1.6-1.3-3.2-2.1-4.7c1.8-2.4,0.5-5.3,1-8.4c1.2-0.4,2.3-0.8,3.4-1.3c1-1.6-1-2.9,0-4.7c0.8-1.3-0.5-3.4,0.8-4.5
	c-1.6-2.6-0.3-5.5-0.8-8.2c-0.5-2.4,0.8-4.7,0-7.1c-0.5-2.6,0.5-5.5-1.3-8.2c4.9-1.4,10-1.8,15-1.1c0.8,0.3,1.8-0.3,2.6-0.3h23.2
	c0.9,0,1.7,0.3,2.4,0.8c0.5,0.3,1.8-0.3,3.2-0.3c1.6,1,3.4,0.8,5.5,0.3c0.3,0,0.5-0.5,0.8-0.5c1.3,0,2.6-0.5,3.7,0
	c2.9,1.8,6.8-0.5,9.7,2.4c-0.2,1-0.6,2-1,2.9c-0.5,0.8,1.8,1.6,0,2.6c1.6,1.8,0.8,3.4,0,5.3c-0.3,0.5,0,1.6,0,2.6h-30.9
	c-1.3,0-2.4,0-3.2,1.3c2.4,2.4-0.5,4.7-0.3,7.4s0,5.5,0,8.4c0.5,0.5,1,1.1,1.3,1.3c4.5-1.2,9.2-1.2,13.7,0c3.7-1.4,7.7-1.3,11.3,0.3
	c0.3-0.3,0.8-0.5,1-0.8C791.2,601.5,793.1,602,795.4,602.8z" fill="white"/>
<path d="M712.5,639.7v12.9c-0.8,0.5-1.8,1.3-2.9,2.1c-1.2,1.1-3,1.3-4.5,0.5c-0.5-0.3-1.8-0.8-2.1-0.3c-1.6,1.6-3.4,0.8-5.3,0.8
	h-18.7c-0.9-0.2-1.8-0.4-2.6-0.8l-0.3,0.3h-13.5l-2.1-2.1v-16.6c0-1.6,0.8-3.4-0.8-4.7c1.8-1.6,0.8-3.4,0.8-5.3
	c0.1-1.8,0.1-3.7,0-5.5V572c-0.4-0.5-0.8-1-1-1.6l2.9-2.9c-0.5,0.3-0.3,0,0,0h20c1.1-0.1,2.1-0.2,3.2-0.5c0.9,0.4,1.9,0.6,2.9,0.8
	c0.3,1.3,1,3.2,1,4.7c0.3,6.6,0,12.9,0,19.5c0.1,1,0.2,2,0.5,2.9c-0.3,0.9-0.5,1.9-0.5,2.9c0,1.6-0.5,3.4,0.3,4.5
	c1,1.6-1.1,2.4-0.3,3.4c0.4,0.8,0.7,1.7,0.8,2.6c-1.2,1.8-1.4,4.1-0.5,6.1c0.5,1-0.5,1.8,0.3,2.9c0.8,0.8,0,2.6,0.3,4
	c0,1.2-0.3,2.4-0.8,3.4c-0.5,1,0,2.6,0,4.2v10.8L712.5,639.7z" fill="white"/>
<path d="M636.9,568.6v19c0,0.3-0.5,0.5-0.5,0.8c1.3,0.8,0.8,2.1,0.8,3.4v53.5c0,1.6,0.5,3.2-0.8,4.7c-0.5,0.5,0.5,2.1,0.8,3.4
	c-0.4,0.8-0.8,1.6-1.3,2.4c-2.1,1.6-4.7-2.6-6.6-0.3c-1.8,0-3.7-0.8-5-0.3c-3.2,1.3-6.1,0.3-9,0.5c-0.5,0-1.3-0.8-1.8-1
	c-0.4,0.4-0.8,0.7-1.3,1c-1.3-0.5-2.4-0.8-4-1.3c-0.7-1.7-1.2-3.5-1.3-5.3c0-1-1.8-2.4,0.3-3.2v-12.7c-0.1-1.3-0.4-2.7-0.8-4
	c0.5-1,0.7-2.1,0.8-3.2V611c0-2.1,0.5-4.2,0.5-6.3c0-2.1-0.2-4.2-0.5-6.3v-6.8c0-1,0.5-2.4,0.5-3.4c0-1.1-0.2-2.1-0.5-3.2
	c-0.3-0.8-0.5-1.6-0.8-2.4c1.6-4.2,0.3-8.4,0.8-12.9c1.6-1.6,3.8-2.5,6.1-2.4c6.3,0,12.4,0.3,18.7,0
	C634,567.3,635.3,568,636.9,568.6z" fill="white"/>
<path d="M909.9,124.1c0.8-2.9,1.6-5.5,2.4-8.4h5.3V132h-3.4v-7.9h-0.8c0,0.8-0.3,1.3-0.3,2.1c-0.3,0.8-0.8,1.3-0.8,1.8
	c-0.1,0.9-0.1,1.8,0,2.6c-1,1.8-2.6,1.6-4.5,1.3c-0.5-2.1-1-4.2-1.6-6.3H906v6.3h-3.7v-16.3h5C908.1,118.4,908.9,121,909.9,124.1z" fill="white"
	/>
<path d="M891.8,132v-12.6h-4.2V116c0-0.1,0.1-0.3,0.2-0.3c0,0,0,0,0,0h13.4v3.4c-1.3,0-2.6,0.3-4.2,0.3V132H891.8z" fill="white"/>
<path d="M595.6,454c-3.7-1.6-7.1-1-10.5-0.5c-1.1,0.3-2.4,0.8-2.9,0.5c-1.6-1-3.2-0.5-4.7-0.8c-1.4-0.4-2.8-0.7-4.2-0.8
	c-1.3,0-2.9,0.8-4.5,1.3c0.1-0.9,0-1.8-0.3-2.6c-0.2-0.6-0.5-1.2-0.8-1.8v-0.8c1.3-0.8,0-1.9,0.3-2.4c0.7-0.8,0.8-2,0.3-2.9
	c-1.1-1.6-0.5-3.2,0.5-4.5c-0.5-1.6-1-2.9-1.6-4.5c0.3-0.3,0.8-0.5,0.8-0.8v-26.9c0-0.3-0.5-0.8-0.8-1c1.2-3.4,1.4-7,0.5-10.5
	c-0.1-1-0.1-1.9,0-2.9c0.3-3.7,0.3-7.4,0.3-10.8c0-0.3-0.5-0.8-0.8-1.1c0.3-0.8,1.1-1.3,1.1-2.1c-0.3-4.7,0.8-9.5-0.5-14.2
	c-0.3-1.3,0.5-2.6,0.5-4.2c0.5-4.5-0.8-9.2,0.8-13.7c-1.3-2.1-0.3-4.5-0.8-6.6c-0.8-1.8-2.4-3.4-3.2-5.3c-1.1-1.8-1.9-3.7-2.9-5.3
	c-0.3,0-0.6,0.1-0.8,0.3v-11.6c0-0.3-0.3-0.5-0.3-0.3c1-3.2,0.5-6.1,0.5-8.7v-8.2l1.9-1.9c0-0.8,0.3-1.6,0.3-2.4c1.8,1.3,3.4-1,5,0
	c0.8-1.6,1.3-2.9,2.1-4.2c-1-1.3-2.4-3.2-3.4-4.7c1.6-1.3,0.8-3.2,1-4.7c0.3-1.6-0.5-3.7,0.3-4.5c1.6-1.9-0.5-3.4,0-4.5
	c1.1-1.6-1-2.6,0-4l1.6-0.8c-0.5-3.4-1.6-6.6-1.6-9.7c-0.3-10.5,0-21.1,0-31.6c0-1.9,0.5-4-0.8-5.5c1.3-1.6,0.5-3.4,0.8-5.3
	c0.1-2,0.1-4,0-6.1c0-0.7-0.2-1.5-0.5-2.1c1-3.1,0.9-6.4-0.3-9.5c0.5-1.3,1.1-3.4,1.6-5.3h30c1.8,0,4,1.8,5.5,0.8
	c1.6-1.3,3.2,0,4.5-0.8c1.3-0.5,3.4-0.3,5,0c0.7,0.1,1.3,0.4,1.8,0.8c0.6-0.4,1.2-0.6,1.8-0.8h17.6c0.8,0,1.6,0.5,2.4,0.5
	c1.8,0,3.5,0,5.3-0.3c1.8,0,4-0.8,5.8-0.3c1.3,0.3,2.6,1.6,4,0c0.7,0.8,1.9,1.1,2.9,0.8c1.9,1.1,3.2,1.6,4.5,2.4
	c0-0.3,0.3-0.3,0.3-0.5c2.1,2.4,4,4.7,6.1,7.4c-0.3,0.5-0.5,0.8-0.8,1.3c0.3,0.8,0.5,1.7,0.5,2.6v39c0,1.3-1.1,2.4-0.3,3.9
	c0.8,1.2,0.5,2.7-0.5,3.7c1.8,1.8,0.5,3.7,0,5.8c-0.5,1.9-1.1,3.7-1.6,5.8c0.4,0.1,0.9,0.2,1.3,0.3c0,0.3,0.5,0.5,0.3,0.8
	c-0.3,1.8-0.3,4-0.5,5.8c0,0.3-0.3,0.5,0,0.5c1.6,2.1,0.5,4.2-0.5,6.6c3.4,4.5,1.6,9.5,2.1,14.8c-0.8,0.5-1.3,1-2.1,1.6
	c0.3,0.3,0.6,0.7,0.8,1.1c-1.3,1.8-0.5,4-0.8,5.5c-1,2.1-2.1,3.7-3.2,5.5l0.3,0.3c-1.1,1.6-2.4,3.1-3.7,4.5h-4.2
	c0.3,0.8,0.8,1.6,1.3,2.4c1.6,1.1,3.4,2.1,5.5,3.4c-0.2,0.4-0.5,0.7-0.8,1c1.1,1.3,1.9,2.9,2.9,4.2c1.3,1.3,2.9,2.1,4,3.2
	c2.1,9,1,18.2,1.3,27.1s0,17.9,0,26.9v34.5c-0.1,1.7-0.3,3.3-0.5,5c0.2,0.5,0.5,0.9,0.8,1.3c0.5,1-1.3,2.1,0,3.4
	c0.8,0.8,0,2.6,0.3,4.2c0.3,3.2-0.8,5.8-1.8,8.4c-1,2.6-2.4,5.1-4,7.4c-2.6,3.2-5.8,4.5-9,6.3c-1.7,0.8-3.6,1.1-5.5,1
	c-6.9,0-13.7,1.3-20.5,0.8c-4.5,1.6-8.7-0.8-13.2,0c-1.3,0.3-2.6-0.5-4,0.8c-0.3,0.3-1.3,0-2.1-0.3c-3.7-1.3-7.4-0.5-11.3-0.3
	C596.1,453.5,595.8,453.8,595.6,454z M663.2,408.2L663.2,408.2c0,0.4,0.2,0.8,0.5,1.1l0.3-0.2L663.2,408.2L663.2,408.2
	c-0.2-0.2-0.5-0.5-0.5-0.8l-0.3,0.3C662.4,408.2,662.7,408.2,663.2,408.2z M604.5,269L604.5,269c0-0.4-0.2-0.8-0.5-1l-0.3,0.3
	c0.3,0.3,0.5,0.5,2.6-1c-0.5,1-2.4,1.3-1.8,2.9c1,0.5,1.8,1.3,2.6,1.6c-1.3,1.8-0.5,3.4,0,5.3c0.5,1.6-0.3,3.4-0.5,5.3
	c0.1,0.1,0.2,0.3,0.3,0.5c0.3,4.5,0.3,9.2,0.5,13.2c2.1,0.3,4.2,1,6,0.5c0.3,0.8,0.5,1.3,0.8,2.1c0.9-0.3,1.8-0.6,2.6-1
	c1.7,0.1,3.4,0.4,5,0.8c2.1-1.1,3.4-1.9,5-2.6c-1.6-3.4-1-6.8-1-10.3c0-0.8,0.3-2.1-0.3-2.6c-1-1-0.5-2.1-0.8-2.9
	c0-0.8-0.3-2.1,0.3-2.6c1.6-1.3-1.3-1.8-0.3-2.6c1.6-1.3,0.8-2.9,0.8-4.2c0.5-4-0.8-8.2,0.8-12.1c0.3-0.8-0.3-1.8-0.3-2.6
	c-0.8-3.2-1-6.6,0.3-9.2c-2.1-5.5,0.3-10.5,0.3-15.3c-1.6-0.8-2.9-1.6-4.5-2.4c-1.3,0.3-2.9-0.5-4.5,0.8c-1,0.8-2.6-0.8-4.2,0
	c-1.3,0.5-3.4,0-5.3,0c-0.3,0.8-0.8,1.6-1.1,2.4c-0.3,1.6-0.3,3.2,0,4.7C608.2,247.4,605.8,257.4,604.5,269z M625.8,389v-6
	c0.1-2-0.2-3.9-0.8-5.8c-0.5-1-0.3-2.6,0-4.2c0.3-1.3,0.5-2.9,0.8-4.2c0.8-4.5-1.3-8.7,0-13.2c0.3-1-0.5-2.1-0.5-2.6
	c1-4.5-1.8-8.7,0.8-12.6c-0.8-1.6-1.3-3.2-2.1-5c-1.3,0.4-2.7,0.8-4,1.3c-0.3-0.3-0.8-0.5-1.3-1.1c-0.5,0.7-1,1.5-1.3,2.4
	c-1.6-1-3.4-1-3.7-2.9c-1,1.6-2.6,0.8-3.7,1l-2.4,2.4c0.1,1,0.1,1.9,0,2.9c-1.3,1.8-1,3.4-0.3,5.5c0.5,1.4,0.6,3,0.3,4.5
	c-1.3,3.5-1.3,7.3,0,10.8c0.2,1,0,2-0.5,2.9c-0.6,1.5-0.4,3.2,0.5,4.5c-1.4,1.6-1.4,4,0,5.5c-1.8,2.1-1.3,4.7-1,6.6
	c1,6.3,1,9.5,0,15c-0.3,2.1-0.5,4.2,0.5,5.8c-0.8,4.2-1.6,8.2-2.1,12.1l5.5,4c0.8-0.8,1.6-1.3,2.4-2.1c2.1,2.1,4.5,0.8,6.8,0.3
	c0.4,0.6,0.8,1.3,1.3,1.8h3.7c0.8-1.8,1.8-3.4,2.6-5.3c-0.5-0.5-1-1-1.3-1.6v-19.8c0.8-0.5,1.3-0.8,2.4-1.6
	C627.1,389.8,626.6,389.3,625.8,389z M565.5,299.5c-1,0.5-1.8,1.1-3.2,1.9h3.2V299.5z M570.3,365.6h0.8c0-0.5-0.3-1-0.3-1.6h-0.5
	L570.3,365.6z M570.3,284.8h0.5v-1.8h-0.5V284.8z M629,244.8h0.5v-1.8H629V244.8z M632.4,393.8v0.3h1v-0.3H632.4z" fill="white"/>
<path d="M463.1,453c-1.3,0.3-2.9-0.3-4.2,0.8c-1.3,0.6-2.8,0.3-3.7-0.8c-0.9,1.2-2.5,1.4-3.7,0.5c0,0,0,0,0,0
	c-1.3-1.1-2.1,0.8-3.2,0.3c-0.9-0.5-1.9-0.8-2.9-0.8c-0.5,0-1,0.5-1.6,0.8c-2.9-2.1-6-4.2-9-6.3c-1.4-1.1-2.3-2.7-2.6-4.5
	c-0.3-1.6-0.5-3.2-0.8-4.7c-1.1-3.3-1.7-6.8-1.8-10.3v-46.1c-0.1-1.6,0.3-3.3,1-4.7c0.5-0.8,1-1.6,0.8-2.4c-0.3-1.3-1-2.6-0.8-3.7
	s1-2.1,0.8-3.4c-0.3-2.1,0.5-4.5-0.8-6.6c-0.3-0.3,0-0.5,0-0.8c0-1.6-0.3-3.4,0.3-4.5c1.1-1.6-1.3-2.1-0.5-3.7
	c0.8-1.3-0.3-2.9,0.5-4.5c0.5-1.1-0.5-2.6-0.5-4c0.3-3.4-0.8-6.9,0.8-10.3c-1.6-3.2-0.5-6.6-0.8-10c0-1.3-0.5-2.6,0.8-4
	c0.3-0.3,0-1.3-0.3-2.1c0-0.5-0.5-0.8-0.5-1.1c-0.5-1.3,0.8-2.6,0.3-3.9c-0.6-1.3-0.4-2.8,0.5-4c0.5-0.8-0.3-2.4-0.5-4l0.8-0.8
	c-1.6-1.1-1.3-3.2-0.8-4.2c0.8-1.8,0.3-3.4,0-5c-0.3-2.9-0.3-5.8,0-8.7c0.3-2.6-1-5.5,0.8-8.2c0.2-0.7,0.1-1.5-0.3-2.1
	c-0.9-1.6-1-3.6-0.3-5.3c0.5-1.3,1.1-2.4,0-3.7c-0.8-1,0.8-2.6,0.3-3.2c-0.8-1-0.5-2.1-0.5-3.2c0-1.3-0.3-3.2,0.3-3.4
	c1.6-0.8-1.3-1.8,0.3-2.6c0.3-0.9,0.3-1.7,0.3-2.6v-3.2c-0.1-0.9-0.5-1.7-1-2.4c0.3-0.3,0.5-0.8,0.8-1.1c-0.3-0.6-0.6-1.1-1.1-1.6
	c0.4-0.4,0.8-0.8,1.1-1.3c0-1.3-2.1-2.6-0.3-4.5c0.8-0.8,0.5-2.6,0.8-4.2l-1.6-1.6c0.3-2.6-0.5-5.3,0.8-7.9c0.5-1,0-2.4-0.3-3.9
	c-0.9-2.7-0.7-5.6,0.5-8.2c-0.3-0.7-0.6-1.4-0.8-2.1c-0.3-0.8-0.3-1.8,0.3-2.1c1.3-0.8-0.3-1.3,0-2.1c0.3-0.3,0.5-0.7,0.5-1.1
	c-0.4-1.6-0.7-3.1-0.8-4.7c0-1.3,0.8-2.6,1.3-4.7l1.9-1.8c2.2,0.4,4.4,0.7,6.6,0.8c2.1,0.1,4.1,0.6,6,1.3c1.3-0.3,2.1-3.2,4.2-1.6
	c0.3,0.7,0.6,1.4,0.8,2.1c0.9-0.7,1.8-1.5,2.6-2.4c2.4,0,5-0.3,7.4,1.1c1.3-0.8,2.4,1.3,4,0c0.8-0.8,2.6,0,4.2,0
	c1.1,0.8,2.4,1.6,4.2,2.9c-0.9,0.4-1.9,0.7-2.9,1c0.8,5,1.8,10,0.3,15.3c1.1,8.2,1.1,13.2-0.3,15.5c0.4,1.3,0.7,2.6,0.8,4v27.4
	c0,1.3-0.3,2.4-0.3,3.7c0,1.3,0.2,2.7,0.5,4c0.3,1.3-0.5,2.9,0.8,4c-2.1,1.9,0.3,3.4,0,5.3c-0.1,1.8-0.1,3.7,0,5.5
	c0,1,0.5,2.1-0.5,2.9c-0.3,0.3-0.5,1.3-0.3,1.6c1.6,2.4,0.8,4.7,0.8,7.1v27.9c0,1.6,0.5,3.4-0.3,4.5c-1,1.6,1,2.1,0.5,3.7
	c-0.5,1.3,0,3.2-0.3,4.5c-0.2,1.2-0.4,2.5-0.8,3.7c0.3,0.3,0.5,0.5,0.5,0.8c-0.5,1.3-0.8,2.6-1.3,4c0.5,1.9,1.6,4,1.6,6.3V374
	c0,2.1-0.8,4.5-0.8,6.6c-0.3,2.1,0.5,4.5-0.3,6.6c-1,3.2-0.5,5.8,0,8.7c0.3,1.3-0.3,2.6-0.8,4.2c2.4,2.1-0.8,4.2-1,6.6
	c0.3,0.5,0.5,1.3,1,2.4c-0.3,0.4-0.6,0.8-0.8,1.3l0.8,0.8c-0.3,0.3-0.6,0.7-0.8,1c1.8,1.3,3.4,2.6,5.5,4.2c2.6-2.4,6-3.1,9.7-2.9
	s3.7,0,5-0.5c0.8,0.4,1.6,0.8,2.4,1c-0.5,1.1-0.8,1.6-1.3,2.6v-0.5c-0.5,0-1.3,0.3-1.9,0.3v0.5c0.7,0,1.3-0.1,1.9-0.5
	c0.8-0.5,1.7-0.9,2.6-1c0,0.3,0.3,1,0.3,1.6l-0.3-0.3c-0.3,0.3-0.5,0.5-0.8,0.5l0.3,0.3c0.3-0.3,0.5-0.5,0.5-0.8
	c1.1,0.3,2.2-0.3,2.6-1.4c0-0.1,0.1-0.3,0.1-0.4c0-2.6,1.6-4.7,1-7.6c-0.1-2.3-0.1-4.6,0-6.9c0-0.8,0.5-1.3,0.8-2.4
	c-0.8-2.1-1.6-4.5-0.3-6.8c0.2-0.7,0.3-1.4,0.3-2.1v-9.7c0.2-1.6-0.2-3.3-1-4.7c1.6-1.3-0.8-2.6,0-4c1.3-1,2.4-0.8,3.4,0.8
	c0.5-3.4-2.9-2.6-3.4-4.7v-6.3l3.2-2.4c-0.4-0.7-0.8-1.3-1.3-1.8c0.3-0.5,0.8-1,0.8-1.3c-0.3-1.6-1-3.1-0.3-3.9
	c1.3-1.6-1.3-2.1-0.5-3.7c0.5-1-0.5-2.9,1.3-3.7c-0.3-0.5-1-1-1-1.6c0.3-4.2-2.9-8.4-0.3-12.6c0.5-1.1-1-1.9-0.3-3.2
	c0.5-1.1,0.8-1.9-0.3-2.9c-0.3-0.3-0.5-1-0.3-1.3c1.1-2.4,0-5,0-7.4c0-1.3,0.5-2.6-0.8-4c-0.5-0.5,0-2.1,0.3-2.9
	c0-0.8,0.8-1.6,0.5-2.1c-1.6-2.4-0.8-4.5,0-6.9c0.3-0.5,0-1.3,0-1.8v-24.8c0-1.2-0.2-2.5-0.5-3.7c0.8-5,1-9.8-0.3-14.5
	c0.3-0.3,0.5-0.8,1.1-1.1c-1.9-3.4-1.3-7.4-0.8-10.8c0.3-2.9,1.3-5.8,0.5-8.4c-1-4.2-0.5-8.2-0.8-12.1c0-1.3-0.5-2.6,0.8-4
	c0.3-0.6,0.3-1.3,0-1.8c-1.6-2.9-0.5-6.1-0.5-9.2c0-2.9,1.6-5.8,0-9.5c0.8,0.2,1.6,0.4,2.4,0.5l1.6,0.8c0.1-0.5,0.3-1.1,0.5-1.6
	c-0.7-0.2-1.5-0.6-2.1-1.1c0.5-0.8,1-1.6,1.6-2.4c4.2,2.6,9.2-0.5,13.7,2.1c1.3-0.5,2.6-1.9,4-0.3c1.3-1.1,2.9-0.5,4.2-0.8
	c1.6-0.5,2.6,1.1,4.5,0.3c1.5-0.4,3-0.4,4.5,0c1.4,0.4,2.8,0.8,4.2,1.3c0,0.5,0.3,0.8,0.3,1.3c0.8,0.3,1.6,0.3,2.6,0.5
	c-0.5,1.6-0.8,3.1-1,4.7c0.7,0.5,1.5,0.8,2.4,1.1c-2.1,3.4-3.4,6.6-0.3,10c-0.3,0.3-0.6,0.7-0.8,1.1c0.3,0.5,0.8,1,1.3,1.8
	c-1,0.5-1.8,1-2.4,1.3c0.4,0.8,0.8,1.6,1.3,2.4c-0.6,0.3-1.2,0.4-1.9,0.5c0,0.3-0.3,0.5-0.3,0.8c0,1.8-0.3,3.7,1,5.3
	c2.1,2.6,1.9,5.8,1.9,9c0,1-0.8,1.8-0.8,2.9c0,0.8,0.8,2.1,0.5,2.1c-1.3,1,1.1,1.6,0.3,2.6c-0.3,0.3,0,0.8,0,1.3
	c-0.3,1.3-0.8,2.9-0.3,3.4c1.1,1.3-1,2.4,0.3,3.9c0.8,0.8,0,2.6,0,3.9v18.2c0,1.3-0.5,2.9,0.8,4.2c0.3,0.7,0.2,1.5-0.3,2.1
	c-1.6,1.6,0,2.6,0.3,4.2c-0.3,0.5-0.7,1.1-1.1,1.6c0.2,0.4,0.5,0.7,0.8,1c-0.3,2.6-0.3,4.7-0.5,6.6c-0.5,2.1,2.6,3.9,0,5.8
	c1.6,1.6,1,3.4,0.5,5c-0.5,0.9-0.5,2,0,2.9c0.5,0.9,0.7,1.9,0.5,2.9c-1.3,1.3,0.8,2.4,0,3.4c-0.8,1.1-1,2.4-0.8,3.7
	c-0.1,1.4-0.1,2.8,0,4.2c1.3,3.7,0.8,7.1,0.8,10.8c0,1,0.5,2.1-0.8,2.9c-0.3,0.3-0.3,1.3-0.3,1.8c1.3,3.5,1.3,7.3,0,10.8
	c-0.1,1-0.1,1.9,0,2.9c-0.3,1.3,0.5,2.9-0.8,4.5c-0.5,0.5-0.3,2.1,0.3,2.9c0.8,1.9,0.8,4.1,0,6.1c-0.2,1.1,0,2.2,0.5,3.2
	c-0.3,1-0.5,2.4-0.8,3.4c-0.5,1.3,1,2.1,0.5,3.7c-0.5,1.3-0.3,2.6-0.5,3.9v7.9c-0.3,2.9,0.3,5.5-0.8,8.4c-0.7,1.9-0.5,4,0.5,5.8
	c0.2,0.2,0.3,0.5,0.3,0.8c0,1.8-1.8,3.4-0.3,5.8c1.1,1.3,0.3,4,0.3,5.8c0,2.1,0.5,4.5,0,6.6c-1.1,4.2-0.5,8.4-0.8,12.6
	c-0.3,3.1-1.9,5.8-3.2,8.4c-1,2.4-4,4.2-6.3,6.1c-3.6,2.6-8,3.9-12.4,3.7c-1.6,0-3.4-0.5-5,0.8c-0.3-0.5-0.8-1-0.8-1.3
	c-3.2-1.6-5.3,0.8-7.9,0.3c-2.4-0.3-5,0.8-6.6-0.5c-1.8,0.3-3.7,0.8-5,0.3c-1.6-0.8-3.5-1-5.3-0.5c-3.7,1.3-7.6,0.5-11.3,0.8
	c-0.8,0-1.3,0.5-2.1,0.8c-2.4-1-4.5-1-7.9,0C465,454,463.6,454.8,463.1,453L463.1,453c0.3-0.1,0.5-0.4,0.8-0.6l-0.3-0.3
	C463.6,452.5,463.4,452.7,463.1,453z M435.2,234.8L435.2,234.8c0-0.4-0.2-0.8-0.5-1.1l-0.3,0.3c0.3,0.4,0.9,0.5,1.3,0.3
	c-0.6,0.8-1.3,1.5-2.1,2.1c0.8-0.2,1.6-0.3,2.4-0.3C436.3,235.5,436.1,235,435.2,234.8L435.2,234.8z M531.8,200
	c1.1,0.5,1.8,0.8,3.4,1.6c-1-1.8-1.3-2.6-1.8-3.7C533.1,198.7,532.5,199.4,531.8,200L531.8,200z M466.1,196.6
	c0.2,0.6,0.3,1.2,0.3,1.8c0.4-0.7,0.8-1.3,1.3-1.8H466.1z M469.7,197.6H469c0,0.5,0.3,1.1,0.3,1.6h0.5V197.6z M456,198.4h0.3v-1
	h-0.3L456,198.4z M441.6,236.6h-0.3v1.1h0.3V236.6z" fill="white"/>
<path d="M748.8,416.9c1.8,0.5,4.2-0.8,5.8,0.8c0.7-1,1.5-1.8,2.4-2.6v-3.2c0.3-1.3,0.5-2.6,0.8-4c-0.5-0.3-1-0.3-1.6-0.5l-0.3-0.3
	c-0.4-2.3-0.4-4.6-0.3-6.9c0.3-2.1,1-4-0.5-6c-0.3-0.7-0.2-1.5,0.3-2.1c0.8-1,1.1-2.1,0-3.2c-1.3-1.3,1.3-2.9-0.3-4.2
	c1-2.1-0.5-4.5,0-6.6c0.5-2.4-0.5-5,0.8-7.6c0.2-0.9,0.1-1.8-0.3-2.6c-0.8-1.6-1-3.5-0.5-5.3c1-5,1-5.3,0-9.2
	c-0.5-2.1-0.8-4.2,0.8-6.1c-2.4-4,0.5-9-2.1-13.2l-1.6,0.8c-1.3-2.9-5-2.4-6.6-6.1c0-0.8,2.4-2.1,0.3-3.7c1-2.4-1.3-5,0.3-7.4
	c0.2-0.4,0.3-0.9,0.3-1.3c0.3-2.1-1.8-4-0.3-6.3c1-1.6-0.5-4.2,1-6.1c0-4,0-4.2,1.3-7.9c0.8,0.3,1.8,0.3,2.6,0.5
	c3.2-0.3,6.3-0.8,9.7-1c0.5,0.5,0.9,1,1.3,1.6c1.1-0.5,2.2-1.1,3.2-1.9c2.6,1.3,5.5,1.4,8.2,0.3c1.3,1.6,3.2,0.8,5,0.5
	c0.9-0.3,1.7-0.5,2.6-0.5c3.4,0.8,3.4,0.8,7.4,0c1.5-0.1,3-0.1,4.5,0c-0.3,0.8-0.5,1.6-0.8,2.4c2.6,3.4,4.7,7.4,2.6,12.4
	c0.4,0.6,0.7,1.4,0.8,2.1c-0.3,2.1-1.3,4,0,6.3c1,2.1,0.3,4.7,0.3,7.4v6.9c0,1.6,0.3,3.1-0.8,4.7c-0.8,1.4-0.8,3.1,0,4.5
	c1,1.6,0.8,3.2,0.8,4.7v18.7c0,1.6,0.3,3.2-0.8,4.7c-0.5,0.8,0.3,2.4,0.5,4.5c-0.3,0.7-0.5,1.4-0.5,2.1c0.3,3.2-0.3,6.3,0.5,9.5
	c1,2.9,0.8,6.2-0.5,9c-0.5,1.1,0,2.6-0.3,4.2c0,0.8-0.5,1.6-0.8,3.2c0.7,1.3,1.3,2.7,1.6,4.2c0.2,1.3,0,2.7-0.5,4
	c-0.7,1.5-0.7,3.2,0,4.7c0.3,0.5,0.3,1,0.5,1.6c0.5,1.8-2.4,3.4,0,5.3c-0.3,1.9,0.5,3.7-0.8,5.3c1.3,1.8,0.5,3.7-0.3,5.8
	c-0.5,1.8-0.5,4.2-1,6.1c-0.5,1.5-1.3,3-2.4,4.2c-1.3,1.3-2.6,2.9-4,4.5v0.5c-7.9,4.2-16.1,6.6-25.3,4.5c-2.9,1.8-7.1-0.5-10.5,1.3
	c-0.8-0.4-1.6-0.8-2.4-1.3c-1.8,0.3-4,0.8-6.1,1.3l-2.6-1.3l-0.3,0.3c-0.6,0.9-1.7,1.1-2.6,0.5c-0.1-0.1-0.2-0.2-0.3-0.3
	c-1.1-1-1.6,1.1-2.6,0.5c-1-0.5-2.1-0.7-3.2-0.8c-1.6,1.2-3.8,1.1-5.3-0.3c-2.1,1-4.2,1.6-6.3,0c-2.1,1-4.5,1.8-6.8,0
	c-0.5,0.2-0.9,0.6-1.3,1c-11.8-3.4-10.5-4.2-15.3-8.7c0.5-3.2-3.4-3.7-3.4-5.3c-0.8-5.3-1.3-9.5-2.1-14.2c2.9-2.9-1.3-6.9,0.5-10.3
	c-0.3-1.3-0.8-2.9-0.3-4c1-2.9,0.5-5.5,0.3-8.4c0-0.3-0.5-0.5-0.5-0.5c0.3-0.5,0.8-1,0.8-1.6c-0.5-5,1-10-0.8-15
	c1.3-3.2-1.3-6.3-0.3-9.5c1.3-3.7,0.8-7.1,0.8-10.8c0.3-3.4-1.6-6.6-1.1-9.7c0.5-2.4,0.5-5,1.1-7.4c0.3-1.6-1.1-2.9-0.3-4.5
	c0.5-1.3-0.3-3.2,1-4.2c-0.5-2.9,0.5-5.8-0.8-9c-0.9-2.2-0.7-4.6,0.5-6.6c-0.3-2.1-0.5-3.7-0.8-5.3c2.4-2.4,2.1-5,1.8-7.6
	c-0.6-0.3-1.2-0.5-1.8-0.5c0.4-1.1,0.7-2.3,0.8-3.4c0-1,0.5-2.4-0.8-3.4c1.8-0.8-1-1.8,0.5-3.2c0.3,0,0.5-0.1,0.8-0.3
	c0-0.2,0.1-0.4,0.3-0.5c-0.3-0.5-0.8-0.8-0.8-1c0.5-4.5-1-8.7-1-13.2v-13.4c0-0.8,0.5-1.3,0.8-2.1c-1.3-0.8-0.5-2.4-0.8-3.7v-4.2
	c0-1-1-2.9-0.8-3.2c1.8-1.6-0.5-2.4-0.3-3.7c0.3-0.3,0.5-0.8,1-1.3c-1.6-1.8-0.5-4.5-1.3-6.3c-1-2.4-1-5.2,0-7.6
	c0.3-0.5,0-1.6,0-2.4v-10.8c0.1-4.4,0.4-8.8,1.1-13.2c0.4-2,0.6-4,0.8-6.1c0.5-2.9,2.4-5,4.2-7.1c1.6-1.8,3.4-3.4,5.3-5.3
	c1.3-0.2,2.5-0.7,3.4-1.6c2.4-2.1,2.6-1.9,5.5-0.5h0.5c0.6-0.7,1.5-1.1,2.4-1h16.5l0.3,0.3l0.8,0.8c1.8-0.3,3.2-1.8,5.3-0.3
	c0.8,0.5,2.9,0.3,4.2-0.3c1.8-0.5,3.2-0.5,4.5,0.5c1.8-1,3.7-1.6,5.5-0.5c1.6,0.8,2.6,1.1,4.2,0c0.5-0.5,1.8-0.3,2.6-0.3
	c1.6,0.3,3.4-0.8,4.7,0.8c1.3-1,3.2-0.8,4.7-0.8h5c1.4,0,2.7,0.3,4,0.8c1,0.5,3.2-0.3,4,0.3c1.3,0.8,2.9,0.3,3.7,0.8
	c2.9,2.4,6.6,3.7,7.9,7.6c0.4,1.2,1,2.2,1.8,3.2c-0.3,2.6,0.5,5.5-0.5,8.4l0.5,0.5c0.5,1.3-1.8,1.8-0.5,3.4c0.5,0.5-0.5,2.1-0.3,3.2
	c0.3,2.9-0.8,6.1,0.8,8.9c0.3,0.8,0.3,1.6,0,2.4c-0.4,1.1-0.7,2.3-0.8,3.4c0,1.3-0.5,2.6,0.5,3.9c0.5,0.5-0.5,2.1-0.5,3.2
	c0,1.3,0.3,2.6,0.3,3.9s-0.5,2.6-0.3,4c0.3,2.4-0.8,4.7-1.3,7.4c-1.6-0.3-3.4-0.5-5.5-0.8c-2.4,1.3-5.5,0.5-8.4,0.5
	c-3.2,0.3-6.6-0.3-9.7,0c-3.2,0.3-5.8-1-9-1c-1.6-1.3-2.1-2.6-0.5-4.2l-1-1.1c0.5-0.3,1-0.5,1.6-0.5c0-0.3,0.1-0.5,0.3-0.8
	c-0.8-1.1-0.8-2.1-1-3.4c0-2.1,0.5-4.5-0.8-6.6c-0.3-0.3,0-1.3,0.3-1.6c1.3-1.6,0.8-2.6-0.3-3.4c0.5-1.6,0.8-3.3,1-5h-3.2
	c-0.8-0.8-1.6-1.3-2.4-2.1c-0.3,0.3-0.8,0.3-1,0.5c-1.6,1.2-3.6,1.7-5.5,1.6c-2.9-0.3-6,0.3-9-0.8c-1.8-0.5-4,0.5-6,0.8
	c-0.8,3.4,0,6.3,1,9.2c0.3,1,0.5,2.1,0.5,3.2c-1.1,5.8-1.3,6.1,0,11.3v1.3c0.5,1.6-2.1,2.9-0.3,5c0.8,1.1,0.3,3.2,0.3,5v5.5
	c0,1.1,0.5,2.4-0.8,3.4c-0.3,0.3-0.5,1.3-0.3,1.6c1.6,1.9,0.8,4.2,0.8,6.1c0.3,3.7-0.8,7.4,1,10.8v0.8l-0.8,5.5
	c1.8,1.6,0.8,3.7,0.8,5.8c0.3,2.6-1.6,5.3-1,7.9c0.5,2.1-0.5,4.2,0.8,6c0.5,0.8,0.3,2.1,0,3.2c-0.4,0.9-0.7,1.9-0.8,2.9
	c0,1,0.8,1.8,0.8,2.9c0,1.6-1.3,3.7-0.8,4.7c1,1.6,0.5,3.2,0.8,4.7c0,0.5-0.5,1-0.5,1.6c0,1,0.3,2.1,0.3,4c-1,1-1,2.7,0,3.7
	c0.1,0.1,0.2,0.1,0.2,0.2c-1.6,3.2-1.3,6.1-0.3,9.7c-0.8,1.6-1.6,3.7,0.3,6.1c-1,1.2-1.3,2.9-0.8,4.5c0.8,2.4,1,12.4,0.3,15
	c0,0.3-0.2,0.5-0.5,0.5c1.6,1.6,1,3.4,0.5,5c-0.8,1.5-0.8,3.3,0,4.7c0.8,1.5,0.5,3.2-0.5,4.5c1,2.1,1.6,4.2,0,6.3
	c0.4,0.4,0.7,0.8,1,1.3c-0.5,0.8-1.3,1.6-1.6,2.1c0.3,1.6,0.5,3.2,0.8,4.5c-1,1.6-2.9,2.4-2.9,4.2c1,1.1,0.8-0.8,1-0.5
	c2.6,0.5,4.2,2.1,6.8,1.3c1.3-0.5,3.2,0.5,4.5,1.1c1-0.8,1.8-1.7,2.7-2.6c0.5,0.4,1,0.8,1.6,1c0.4-0.4,0.8-0.7,1.3-1
	C748.5,415.6,748.8,416,748.8,416.9L748.8,416.9c-0.5,0-0.5,0.2-0.8,0.5l0.3,0.3C748.3,417.5,748.5,417.2,748.8,416.9z M762.2,397.9
	c-1.6,0.3-2.4,0.3-4,0.5c0.6,0.9,1.3,1.8,2.1,2.6C761.1,400.1,761.7,399.1,762.2,397.9L762.2,397.9z M749.8,423.5
	c0.8-1.6,2.9-1.8,2.1-4C751.4,420.9,749.1,421.1,749.8,423.5L749.8,423.5z M759.8,406.4c0.3,0,0.3,0.3,0.5,0.3
	c0.4-0.7,0.8-1.5,1-2.4c-0.5-0.5-0.8-1-1-1.3c-0.3,0.3-0.5,0.5-0.5,0.8V406.4z M787.8,214.2c0.6-0.2,1.2-0.3,1.8-0.3
	c-0.7-0.4-1.3-0.8-1.8-1.3V214.2z M789.9,440.1h0.5v-1.8h-0.5V440.1z M788.1,419.6h0.3v-1h-0.3V419.6z M782,300.6h-0.3v1h0.3V300.6z
	 M784.6,200.2h-0.3v1.1h0.3V200.2z M704.1,200.8v-0.3h-1v0.3H704.1z" fill="white"/>
<path d="M340.2,449.6c0.5,1.6,0.8,2.4,1,3.2c-3.5,1.3-7.1,2.3-10.8,2.9c-0.8-1.3-2.6-0.5-4-0.5h-9.5c-1.5,0.1-3-0.1-4.5-0.5
	c-1.6-0.3-2.6,0.8-4,0.5c-1.3-0.5-2.7-0.8-4.1-1.1c-0.6-1.5-1.1-3-1.6-4.5c-0.5-0.3-1.6-1.3-2.4-1.8v-35.8c-0.1-1.6-0.2-3.2-0.5-4.7
	c0.2-0.8,0.4-1.6,0.5-2.4c0.1-2,0.1-4,0-6.1c-0.5-7.1,0.8-14.2,0.8-21.3c-0.2-1.6-0.4-3.2-0.8-4.7c0.3-0.3,0.6-0.6,0.8-1
	c-1.6-1.3-0.3-3.7-1.8-5.5c-0.3-0.4-0.3-0.9,0-1.3c1.8-3.4,1-6.9,0-10.3c0.8-2.1,3.7-2.6,2.9-5c-1.3-0.8-2.4-1.6-3.7-2.4
	c-0.8,0.3-1.6,0.8-2.4,1c-0.3-0.5-0.5-0.5-0.5-0.8c-1.6-9.2-0.8-18.4-1-27.4c0-1.4,0.2-2.9,0.8-4.2c0.4-1.4,0.9-2.7,1.6-4
	c0.8-1.3,0.5-3.4,3.2-3.7v-7.9c0-0.3-0.5-0.8-0.5-0.5c0.3-1.6,0.5-3.1,0.5-4.7v-28c0.1-1.1,0.2-2.1,0.5-3.2c0,0-0.5-0.3-0.5-0.5
	c-0.3-3.2-1.1-6.6-0.5-9.7c1-5.5-0.5-11.3,1-17.1c-0.3-0.5-0.6-1-0.8-1.6c0.2-0.4,0.5-0.7,0.8-1c-0.3-2.1-0.5-4.2-0.5-6.3
	c0-1.1-0.3-2.1,0.5-2.9c0.3-0.3,0.5-1.3,0.3-1.6c-1.8-2.9-0.5-6.3-0.8-9.5c-0.3-2.4,0.8-4.7-0.8-7.1c-0.3-0.4-0.3-0.9,0-1.3
	c1.8-2.6,0.5-5.8,1-8.7c0.8-0.5,1.8-1.3,3.4-2.4c2.1,0.3,4.5,0.8,6.9,1.1c2.6,0.1,5.3,0.1,7.9,0c1.3,0,3.2,0.8,4.2-0.8
	c0.6-0.3,1.3-0.3,1.8,0c4.5,1.1,4.5,1.3,9.5,0c1.3-0.3,2.4,1.9,3.4,0.3c2.1,1.3,4.7-1.6,6.9,0.8c0.3,0.3,0.8,0,1.3,0
	c0.8,0,1.8-0.5,2.6-0.5c1,0,2.1,0.5,3.2,0.5c2.2,0,4.4-0.3,6.6-0.8c3.7-0.8,7.6,0.5,11.3,1.8c0.5-0.3,0.8-0.8,1.1-1
	c1.3,0.3,2.4,0.8,3.7,1c0.2-0.6,0.5-1.2,0.8-1.8c0.3,0,0.5-0.3,0.8-0.3c2.1,1.1,3.7,1.1,6.3,1.1c2.1,0,4.5-0.8,6.6,1
	c0.5-0.3,0.9-0.6,1.3-1c4.7,1,9.2,2.4,12.4,7.4c0-0.3-0.3,0.5,0,1c2.1,2.9,1.9,6.3,1.9,9.5v8.9c0.1,1.2,0.3,2.3,0.8,3.4
	c-1.1,1.3-1.3,3.2,0.3,5.3c-0.4,0.9-0.7,1.9-0.8,2.9v12.6c0,2.9-0.8,5.8-0.3,8.7c0.3,2.9,0.8,5.5-0.3,8.2c1.6,1.1,0,2.1,0,2.6
	c0.4,1.2,0.6,2.4,0.8,3.7v32.6c0,1.6-1.1,2.6-0.3,4.5c0.8,1.3-0.3,3.2-0.8,4.7c-0.3,0.5-0.3,1.8,0.3,2.1c1.1,1,0.8,2.4,0.8,3.4v16.3
	c0,2.1-3.2,10.5-4.5,11.6c-1.6,1.3-3.2,2.4-5,3.4c-0.8-0.3-1.6-0.6-2.4-0.8c-0.4,0.9-1,1.8-1.6,2.6c-1.5,0.1-3,0.1-4.5,0
	c-1.3-0.3-2.4,1.6-3.4,0c-0.4,0.1-0.7,0.3-1.1,0.5c-2.4,0.8-2.9,0.8-5-0.3c-1.6,0.3-3.1,0.5-4.7,0.5h-29.2c-0.7,0.5-1.5,1-2.1,1.6
	c0.5,0.8,0.9,1.5,1.3,2.4c-0.3,0.5-0.5,0.8-0.8,1.3c0.5,1.3,1,2.6,1.6,3.7c-0.3,1.8-1.1,4-0.5,5.3c1.3,4.2,0.8,8.7,0.3,12.9
	c0,0.8,0.5,1.8,0.5,2.6v7.9c0,0.8,0.5,1.3,0.8,2.1c-0.4,1.2-0.7,2.4-0.8,3.7v9c0,3.2,0.5,6.3-0.8,9.5c-0.7,1.6-0.5,3.4,0.5,4.7
	c0.5,0.6,0.6,1.4,0.3,2.1c-1.3,2.4,1.6,5-0.8,7.1l0.5,0.5V448C342.3,447.5,341.2,448.5,340.2,449.6z M336.7,307.1L336.7,307.1
	c0-0.4-0.2-0.8-0.5-1l-0.3,0.3C336.2,306.9,336.5,306.9,336.7,307.1L336.7,307.1c0.3,0.3,0.5,0.6,0.5,0.8l0.3-0.3
	C337.5,307.4,337.3,307.1,336.7,307.1z M343.3,302.1c-1.9,1-2.4,1.8-2.9,4.7c2.1,0,2.4,2.4,4.5,3.2c2.1,0.6,4.4,0.9,6.6,0.8
	c3.2,0,6.3-0.5,9.7-0.8c0.5,0.5,1.3,1,1.8,1.6c-0.8-2.4-1.3-4.5,0-7.1c0.6,0.9,1.3,1.7,2.1,2.4c0.3,0.5,0.8,0.8,2.1,1.6
	c-0.5-3.2-1.1-5.8-1.6-8.2l-1.6,4c-0.5-4-4.7-7.4-1.6-11.3c-0.5-0.8-0.8-1.3-1.3-2.1c0.6-0.4,1.3-0.8,1.8-1.3
	c-0.3-1-0.6-1.9-0.8-2.9v-10.3c0-1-0.8-2.1-0.8-3.4c-0.3-1.2-0.3-2.5,0-3.7c0.5-1.9,1.6-3.4,0-5.3c-0.5-5,0.8-10.3-0.8-15.3
	c1.9-3.4,0.3-6.9,1.1-10.3l1.3-1.3c-0.8-1.8-1.3-3.7-2.1-5.5l-3.9,0.8c-0.3-0.5-0.3-1.1-0.5-1.6c-1.6,1.3-2.6-0.5-4.2,0
	c-1.6,0.1-3.2,0.1-4.7,0h-4.2c-0.8,1.8-1.6,3.7-2.1,5.3l1.6,1.6c0,1.3,0.5,2.9,0,3.9c-0.8,1.6,0.5,2.6,0,3.9
	c-1.3,3.7-1.3,7.7,0,11.3c0.5,1.3-0.3,3.2-0.5,5c3.2,2.4-2.1,5.8,0.5,8.7v21.1C343.2,295.1,343.4,298.6,343.3,302.1z M303.8,263.4
	c1.9-1.3,1.6-2.9,1.1-5c-0.7,0.6-1.4,1.1-2.1,1.6C303,261.2,303.3,262.3,303.8,263.4z M303.1,369.8c0.5,1.3,1.1,2.6,2.9,2.1
	c-0.5-0.9-1-1.9-1.3-2.9C304.1,369.5,303.6,369.5,303.1,369.8z M346.2,315.6c1.1-0.3,1.9-0.3,3.2-0.5c-1-0.5-2.1-0.9-3.2-1.3V315.6z
	 M303.3,257.4l0.5,0.5c0.5,0,0.8-0.3,1.3-0.3c-0.1-0.8-0.3-1.6-0.5-2.4C304.1,256.3,303.6,256.8,303.3,257.4L303.3,257.4z
	 M351.8,315.6c0.6-0.2,1.2-0.3,1.9-0.3c-0.7-0.4-1.3-0.8-1.9-1.3V315.6z M360.2,314.8v0.3h1v-0.3L360.2,314.8z M333.1,430.1v0.3h1.1
	v-0.3H333.1z M365.7,299v0.3h1V299H365.7z M298.6,345.6v0.3h1v-0.3H298.6z M302.6,352.9v0.3h1v-0.3H302.6z M304.1,359.3h-0.3v1h0.2
	L304.1,359.3z" fill="white"/>
<path d="M261.7,173.6c1.3-1.3,2.6-2.6,5.3-1.8C264.6,172.6,263.1,173.1,261.7,173.6z" fill="white"/>
<path d="M261.7,173.4c-0.3,0.3-0.5,0.5-0.5,0.8l-0.3-0.3C260.9,173.6,261.2,173.4,261.7,173.4z" fill="white"/>
</svg>
