<?xml version="1.0" encoding="utf-8"?>
<!-- Generator: Adobe Illustrator 25.0.1, SVG Export Plug-In . SVG Version: 6.00 Build 0)  -->
<svg version="1.0" id="Layer_1" xmlns="http://www.w3.org/2000/svg" xmlns:xlink="http://www.w3.org/1999/xlink" x="0px" y="0px"
	 viewBox="0 0 953.3 677.8" style="enable-background:new 0 0 953.3 677.8;" xml:space="preserve">
<style type="text/css">
	.st0{fill:#13ECA5;}
</style>
<path d="M371.1,134.9h211.2c0.1,8.4,0,16.7,0,25.1c1.9,0,3.7,0.1,5.6,0.2c-0.2,8.3,0.3,16.6-0.3,24.8c-1.8,0.2-3.6,0.2-5.3,0.2
	c0,8.3,0,16.7,0,25c1.7,0.3,4.3-0.6,5.5,0.7c0.4,8.1,0,16.2,0.2,24.3c-1.9,0.1-3.8,0.2-5.6,0.3c0,8.3,0.1,16.7-0.1,25
	c-9.4,0.2-18.8,0-28.3,0.1c-61,0-122,0-183,0c-0.3-8.4-0.1-16.7-0.1-25.1c-1.9,0-3.7-0.1-5.5-0.2c0.1-8.3-0.4-16.6,0.3-24.9
	c1.7-0.2,3.5-0.2,5.3-0.2c0-8.3,0-16.6,0-24.8c-1.8,0-3.6,0-5.5,0c-0.1-8.4-0.2-16.7,0-25.1c1.8-0.3,3.6-0.4,5.4-0.3
	C371,151.7,370.6,143.3,371.1,134.9 M386.2,150.4c-0.1,13.2,0,26.4,0,39.6l-1.8,0.5c-0.4,4.9-0.4,9.8,0,14.6l1.9,0.5
	c0,13.2,0,26.4,0,39.6c5,0.1,10.2,0.7,15.1-0.2c0.2-13.2,0-26.4,0.1-39.6c4.8,0,9.6,0.1,14.5,0c2.6-0.1,4.1-2.7,5.9-4.3
	c1.3-1.4,3.3-2.7,3.2-4.9c0.1-12.1,0.1-24.3,0-36.4c0.2-2.5-2.1-3.9-3.6-5.5c-1.8-1.7-3.5-4.3-6.3-4
	C405.5,150.4,395.8,150,386.2,150.4 M433.5,151.5c-0.1,28.1-0.1,56.2,0,84.4c-0.1,2.6,2.3,4.1,3.9,5.8c1.7,1.5,3.2,3.9,5.8,3.7
	c6.6,0,13.3,0,19.9,0c2.3,0.1,3.7-2.1,5.2-3.5c1.6-1.8,4.2-3.3,4-6c0-28.5,0.1-57,0-85.5c-5-0.2-10.1-0.2-15.1,0
	c-0.1,26.5,0.2,53-0.2,79.4c-2.7,0.7-5.5,0.2-8.2,0.3c-0.3-25.4-0.1-50.8-0.1-76.1c-0.1-1.2,0.3-2.5-0.4-3.5
	c-4.2-0.4-8.4-0.1-12.6-0.2C434.8,150.3,433.3,150.2,433.5,151.5 M480.8,152.3c0,12.6,0,25.1,0.1,37.7l-2,0.5
	c-0.1,4.9-0.1,9.8,0,14.7l2,0.4c-0.1,13-0.1,26,0,39l0.6,0.7c10,0.1,20,0.2,30-0.1c3.2-2,5.9-4.7,8-7.8c0.5-8.8,0-17.6,0.2-26.4
	c-0.2-2.2,0.6-4.9-1.1-6.7c-2.1-2.3-4.4-4.4-6.5-6.6c2.3-2.3,4.7-4.5,6.9-7c0.9-1,0.8-2.5,0.8-3.8c0-9.1,0-18.2,0-27.3
	c0.1-2.6-2.3-4.1-3.8-5.8c-1.7-1.5-3.2-3.8-5.7-3.8c-9.3,0-18.7,0-28,0c-1.2-0.2-1.5,1.1-1.4,2 M531.8,154c-1.5,1.6-3.7,3.1-3.7,5.6
	c-0.1,25.1,0,50.2,0,75.3c-0.1,1.2,0.2,2.5,0.9,3.5c2.7,2.4,4.8,6.4,8.5,6.8c6.6,0,13.2,0,19.8,0c2.5,0.2,4.1-2.2,5.8-3.7
	c1.5-1.7,4-3.2,3.8-5.8c0-15.1,0-30.3,0-45.4c-5.1-0.5-10.2-0.1-15.4-0.2c-1.2,0.2-2.8-0.4-3.8,0.5c-0.3,4.8-0.3,9.6,0,14.4
	c1.2,0.6,2.7,0.3,4,0.4c-0.1,8.2,0.1,16.4-0.1,24.6c-2.7,0-5.5,0.4-8.2-0.2c-0.2-21.4-0.2-42.8,0-64.2c2.7-0.2,5.5-0.3,8.2-0.1
	c0.3,5.3-0.3,10.7,0.3,16c4.9,0.4,9.9,0.4,14.8,0c0.4-5.6,0-11.3,0.2-16.9c-0.1-2.2,0.3-4.6-0.4-6.8c-1.1-1.8-2.9-3.2-4.3-4.7
	c-1.4-1.4-2.8-3.1-5-2.9c-6.6,0-13.2,0-19.8,0c-2.5,0-4,2.4-5.7,3.9 M590.1,134.9h2.7l2.9,1.6l-0.8,1.4c-1.9-3.4-7.6-1.9-7.5,2
	c-0.2,3.4,3.5,4.9,6.4,3.9c-1-1.3-1.9-2.6-3-3.8c-0.1,0.7-0.2,2-0.3,2.7h-1.1c0-1.8,0-3.6,0-5.5c1.2,0,2.4,0.1,3.6,0.2
	c1.2,0.8,0.1,2.4,0.3,3.6c0.4,0.7,0.8,1.4,1.3,2.1c0.6-2,0.7-4.1,1.5-6c0.5,2,0.9,4.4-0.6,6.1c-1.8,2.2-5.1,2.5-7.3,0.7
	c-0.6-0.5-1.1-1.2-1.4-1.9C585.3,139.1,587.3,135.9,590.1,134.9 M590.7,138.3c-0.5,1.3,0,1.7,1.5,1.3
	C592.7,138.3,592.2,137.8,590.7,138.3 M401.5,190.1c0-8.3,0-16.5,0-24.8c2.7,0,5.5,0,8.2,0c0.5,7.5,0.1,15,0.2,22.5
	c0,0.8,0.1,2.5-1.2,2.2C406.3,190.1,403.9,190,401.5,190.1 M496.1,165.3c2.7,0,5.5,0,8.2,0.1c0.2,8.2,0.2,16.4,0,24.6
	c-2.7,0.1-5.5,0.1-8.2,0.1L496.1,165.3 M496.2,205.3c2.7,0.3,5.8-0.7,8.3,0.5c0.1,8,0.1,16.1,0,24.1c-2.8,0.1-5.5,0-8.2,0
	L496.2,205.3 M112,292.3c5.7,0.3,11.4-0.2,17,0.6c5-0.7,10-0.9,15-0.6c2.1,10,3.9,20.1,5.9,30.1c1.8,10.8,4.5,21.4,6,32.3
	c2.8,13.1,5.1,26.3,7.8,39.5c0.3-3.2,0.2-6.5,0.2-9.8c0-30.7-0.1-61.5,0-92.2c9.4-0.2,18.9,0,28.4,0c0,60.3,0,120.6,0,180.9
	c-10.7,0-21.4,0-32.1,0c-6.7-34.3-13.2-68.8-19.8-103.1c-0.2,33.5,0,66.9-0.1,100.4c0.2,1-0.3,2-1.2,2.3c-4.5-0.5-8.9,0.9-13.4,0.4
	c-1.3-0.8-2.7-2.3-4.3-1.5c-3.1,0.9-6.4,0.7-9.4-0.5c0.2-31.9-0.4-63.8,0.5-95.6c0.3-2.3-0.6-4.5-0.5-6.8
	C111.9,343.3,111.9,317.8,112,292.3 M113.9,464.8c-0.8,1,0.9,2,1.6,1C116.4,464.8,114.6,463.8,113.9,464.8 M126.9,471.6L126.9,471.6
	 M280.2,292.4c10.4-0.3,20.9,0,31.4-0.1c0.2,2.1,0.5,4.1,0.5,6.2c0,7.5,1,14.9,1.3,22.4c1.8,29.5,3.6,59.1,5.4,88.6
	c3.4-31.7,6.5-63.5,9.9-95.2c0.1-5.9,1.7-11.6,1.7-17.5c0.1-1.6,0-3.9,1.9-4.5c2.2,0.1,4.5,1,6.7,0.6c4.1-0.6,8.2,0.1,12.3-0.5
	c2.8-0.4,5.7,0,8.6,0c0.3,0.9,1,1.7,1.9,2.1c3.7,33.3,6.7,66.7,10.4,100c0.2,5.3,0.8,10.5,1.8,15.7c2.3-39.3,4.4-78.6,6.8-117.9
	c4-0.3,8.1,0.2,12.1,0.2c5.5-0.2,10.9-0.1,16.4,0c0.9,0.9,1.9,1.5,3,2c0.1,6.1-1.6,12-1.8,18.1c-3.1,31.5-6.6,63-9.8,94.5
	c-0.1,4.1-2.9,8-1.9,12.1c-0.1,0.9-0.3,1.8-0.4,2.7c-2.7,0.4-5.4,1.1-8.1,2c2.8-0.6,5.7-1,8.6-1.2c-1,11.6-2.4,23.2-3.6,34.9
	c-0.3,5-1.8,9.8-1.6,14.9c-2.1,0.1-4.2,0.4-6.2,0.8l-1.5-0.8l-1.2,0.6c-7.9,0.1-15.9,0-23.8,0c-3-21.3-5.9-42.6-8.8-63.9
	c-2.1-14.6-3.8-29.3-6.2-43.9c-2,18-4.9,35.8-7,53.8c-2.7,17.8-4.6,35.8-7.5,53.6c-3,0.8-6.1-0.5-9.1,0.3c-7.8,0.3-15.6,0-23.4,0.1
	c-6.6-59.9-13.3-119.8-19.6-179.8C279.8,293.3,280.1,292.8,280.2,292.4 M538.3,292.5c4.7-0.6,9.3,0.2,14,0.6
	c8.6-1.1,17.4-0.3,26-0.4c1.3,0.4,2.8,0.4,4.1-0.1c2.6,0.9,5.5-0.2,8.2,0.4c3.2-0.6,6.5-0.8,9.8-0.4c3.5,0.5,7.2-1.3,10.5,0.7
	c1.5,1,4.4,1.3,4.3,3.6c0,8,0,16,0,24.1c-1.4,0.3-2.7,0.5-4.1,0.9c-6.1,0.2-12.3,0.1-18.5,0.1c0,19.3,0.1,38.6-0.1,57.8
	c-0.6,0.8-1.2,1.7-1.8,2.5c-0.4-0.3-0.7-0.6-1.1-0.8c-2.4,3.2-5.8,5.4-9.1,7.4l-1.5-0.1c0.1,2.5-3.1,3.3-4.8,4.5
	c-1.1,0.8-2,1.9-2.6,3.1c-0.9,0.3-1.8,0.5-2.7,0.7c-0.1,0.5-0.2,1.4-0.3,1.9c-1.2,1.6-5.2-0.7-4.2,2.3c0.9,4.3-0.6-0.4-2.2,0.6
	c-0.2,0.6-0.6,1.8-0.8,2.4c-0.7-1.8-0.5-3.8-0.5-5.7c0-25.6,0-51.2,0-76.8h-14.2c-2.5,0-5-1-7.5-0.6c-1.3-0.3-1-2-1-3
	C538.4,309.8,538.2,301.1,538.3,292.5 M774.1,292.4c14-0.2,28.1-0.2,42.1,0.2c8.2,0,16.5-0.5,24.8-0.3c-0.1,1.9-0.2,3.8-0.2,5.7
	c-0.4-0.2-1.2-0.6-1.6-0.9l-0.5,1.1l2.1,0.1c0.2,3,0.2,5.9,0,8.9c0.2,3.6,0.2,7.2-0.1,10.8c0.4,1.3-1,2.2-1.2,3.4l2,0.1
	c-2.8,0.8-5.8,0.2-8.7,0.3c-9,0.2-18,0.1-27,0.1c0,15,0,30,0,44.9c9.6-0.1,19.2,0.1,28.8,0.2c0,9.1,0,18.3,0,27.4
	c-2,0.5-3.8,1.7-5.9,1.4c-2.8-0.2-5.5,0.6-8.3,0.8c-3.2-0.2-6.5-1.3-9.8-0.6c-1.6,0.4-3.2,0.5-4.8,0.6c0,5.6,0.5,11.4-0.6,17
	c0.2,6-0.5,12.1,0.2,18.1c0.4,4.1,0.5,8.2,0.5,12.2c11.5,0.3,23-0.2,34.5,0.1c1.2,1.3,0.4,3.7,0.5,5.5c-0.1,7.9,0.8,15.9-0.6,23.7
	v-2.1c-1.3,0.7-2.4,2.3-4,2.3c-4.3,0-8.7,0.3-12.9-0.5c-2.6,0-5.2,0.6-7.8,0.6c-12.7-0.1-25.3,0-38-0.1c-1.2,0.1-2.2-0.7-3.2-1.1
	c0-25.4,0-50.8,0-76.1c-2.2,0-4.3,0-6.5-0.1c0.7-8.9-0.2-18.1,0.2-27c0.9-2.8,4-2.1,6.3-2.1C774.2,342,774.1,317.2,774.1,292.4
	 M839.3,299.7C838.2,302.3,842,299.5,839.3,299.7 M207.8,294.4c1.9-0.6,3.7-1.5,5.6-1.9c4.4,0.7,8.9,0.4,13.3,0.3
	c2.8-0.1,5.5,1,8.3,0.7c10.7-0.8,21.5-0.9,32.2-1c2.1-0.2,4.2,0.1,6.2,0.7c0.6,0.9,0.9,2,0.8,3.1c0,8.5,0,17.1,0,25.6
	c-4.8,0.6-9.6,0-14.4,0.1c-6.9-0.1-13.9,0.2-20.8-0.2c0,5.6,0.6,11.3-0.2,16.9c0.9,9.4,0.1,18.8,0.4,28.2c3.4-0.2,6.7-0.1,10.1,0.5
	c4.7-0.9,9.5-0.1,14.2-0.5l-0.2,0.9c1.2,0,2,0.8,3,1.4l-0.6,0.9c2.7,0.4,1.1,3.9,1.9,5.7c-0.1,2.2,0,4.4,0.2,6.6h-1.1
	c2.4,1,0.7,3.7,0.6,5.5c0.7,2.9,0.9,5.8,0.4,8.8c-0.4-0.6-1.3-1.9-1.7-2.6c-0.2,0.1-0.6,0.4-0.8,0.5c0.4,0.4,1.1,1.2,1.4,1.7
	c-9.1,0.3-18.3,0.1-27.4,0.2c0,15.8,0,31.6,0,47.5c11.7-0.2,23.4,0,35.1,0.1c0,9.5,0.1,18.9,0,28.4c-1.2,1.3-3,0.6-4.5,0.8
	c-4.6-0.2-9.4,0.7-13.9-0.2c-3.9,0-7.8,0.1-11.7,0.4c-7.7,0.4-15.4-0.1-23.1,0c-1.6,0-3.2,0.2-4.6-0.6c-1.7,0-3.4-1-5.1-0.4
	c-1.2,0.6-2.3-0.4-3.5-0.7c-0.4-25.2-0.1-50.3-0.2-75.5c-1.9,0-3.8,0-5.6,0c0.2-9.6-0.3-19.3,0.3-28.9c1.7-0.4,3.5-0.5,5.3-0.3
	c0.1-22.5,0-44.9,0-67.4C207.6,297.8,207.7,296.1,207.8,294.4 M451.4,306.7c4.8-4.7,9.7-9.5,14.4-14.4c6.2,0.1,12.4,0.1,18.5,0
	c1.1,1.2,2.4,0.6,3.7,0c3.2,0,6.5,0.1,9.7,0l0.3,1.2c0.1-0.3,0.3-1,0.4-1.3l2.7,0.7c0.7,0.1,1.5,0,2.1-0.5l0.2,1.4v-1.4
	c1.5,0.1,3,0.1,4.5,0.2c0.1,0.5,0.4,1.5,0.5,2c3.7-0.9,7.5,0.3,10,3.1c3.6,3.9,7.6,7.5,11.2,11.4c0.1,11.6,0.1,23.3,0,34.9
	c0,2-2,2.7-3.7,2.5c-9.3-0.2-18.6,0-28-0.2c-0.3-8.2,0.1-16.4-0.1-24.5h-17.1c0.2,4.1,0,8.3-0.6,12.4c-0.1,4.3-1.4,9.4,2.4,12.6
	c14.5,14.7,28.5,29.9,43,44.8c0.9,1,1.7,2.1,2.3,3.3l1.2,2.2l-1.3,1l1.7,0.4c-0.1,0.4-0.3,1.1-0.4,1.5c0.3,1.1,0.5,2.3,0.6,3.4
	c-0.1,17.3,0.1,34.6-0.1,51.9c-4.1,5.9-9.5,10.7-14.4,15.8c-1.5,1.4-3.8,1.2-5.7,1.4c-6.1,0.2-12.2,1.3-18.3,0.4
	c-7.7,0.4-15.4-0.1-23.1,0.2c-2-0.2-3.8-1.1-5.1-2.5c-4.5-4.8-9.5-9.3-13.6-14.2c-0.2-14.9,0-29.8-0.1-44.6c0.1-1.2-0.3-2.6,0.4-3.7
	c3.6-0.8,7.3-0.4,11-0.4c6.4,0,12.8,0,19.2,0c1.1,3.5,0.7,7.2,0.6,10.8c0.4,8.5,0.4,16.9,0.4,25.4c3.7,0,7.4-0.2,11,0.2
	c2-0.2,4.1-0.3,6.1-0.2c0.1-11.5,0-23.1,0-34.6c-4.2-4.6-8.6-9-12.8-13.6c-1.9-2-4-3.9-5.5-6.3c-4.6-3.6-8-8.4-12.3-12.4
	c-6-6.4-11.9-12.9-18.1-19c-0.1-4.5,0-9.1,0.2-13.6c0-1.4,0.2-2.8,0.4-4.2c-1.1-2,0.1-4.1,0.3-6.1c-0.6-0.9-0.9-2-0.9-3.1
	c-0.1-7.1,0-14.2-0.1-21.3C449.8,308.5,450.5,307.5,451.4,306.7 M689.1,292.8c3-1.1,6.3,0.2,9.4,0.6l-0.5-1.2
	c8.1,0.1,16.2,0.1,24.4,0.1c0.1,0.3,0.2,1,0.3,1.3c0.1-0.3,0.2-1,0.3-1.4c8.1,0.2,16.3,0,24.4,0.2l0.8,0.6c1.3,0,2.5,0,3.8,0
	c1-0.2,2.1-0.4,3.2-0.5c2.6-0.3,5.2-0.4,7.8-0.3c0.8,0.5,1.7,1.1,2.6,1.6c-0.2,4.7,0.3,9.5-0.4,14.2c0.3,4.2,0,8.5,0.4,12.7
	c-3.1,1.7-6.6,0.5-9.9,0.9c-4.1,0.4-8.2,0.2-12.3,0.2l-1.1,0.9l-0.3,0.3c-0.1-0.5-0.4-1.6-0.5-2.2c-0.5,1-1,2.1-2.4,1.9
	c-2.4-1.3-5.2-0.3-7.7-1.4c-0.9,0.7-2.1,1.2-3.3,1.4c-2.2,0.5-4.2,1.6-6.5,1c-0.3-0.3-1-1-1.3-1.3l-2.5,0.7
	c-0.3,0.8-0.5,1.5-0.8,2.3c-1.4-1-2.5,0.3-3.6,1l-2.2-0.3c0-1.5,0-3,0-4.5c-4.4,0.2-8.7-0.3-13.1,0.1l0.2-1.1
	c-2.9,0.2-5.8,0.4-8.6,0.7l-1.1-1.5c0.3-5,0.3-9.9,0.1-14.9C689.3,301.1,688.2,296.8,689.1,292.8 M739.8,354.5
	c0.9-1.3,1.9-2.4,3.2-3.3c0.3,24.1-0.2,48.1,0.2,72.2l-0.9-0.5c-0.1,0.5-0.3,1.6-0.5,2.2l1.9-0.6c-0.5,0.6-1.6,1.8-2.1,2.3l1.5-0.8
	c-0.2,2.5-0.2,5,0,7.4l-1.2-1c-0.3,1.5-1.3,3.5,1.2,2.9c-0.1,1.6-0.1,3.3-0.1,5l-1.3,1.2c2.2,2,1.2,5.1,1.2,7.7
	c-0.4,0.4-1.2,1.1-1.5,1.4l1.8-0.5c0.2,1.6-0.4,3.1-1.5,4.2h1.4c-0.1,3.9-0.1,7.7-0.2,11.6c0.2,2.5,0.2,4.9,0.1,7.4
	c-10.6-0.1-21.1,0-31.7,0c0-10.6,0.2-21.3,0-31.9c-0.5-0.3-1.1-0.7-1.6-1l1.6,0.4c0-22.6-0.1-45.3,0-67.9c0.8-0.6,1.7-1.2,2.5-1.8
	c-0.5-0.3-1.5-1-2-1.3l3.7,0.4c0.3-0.4,0.8-1.2,1.1-1.6l1.2,0.2v-1.5c0.4,0.2,1.3,0.7,1.7,0.9c1.4-1.5,3.3-2.4,5.4-2.5l0.3-1.1
	c0.7-0.6,1.4-1.3,2.1-1.9l1.9-0.5l-0.9-1c2.1,0.1,3.9-1.5,4-3.6c0,0,0-0.1,0-0.1l1.1,1.9c0.9-1.2,1.2-3.3,3-3.5
	c0.9-0.7,1.8-1.4,2.6-2.1L739.8,354.5 M714.6,449.3L714.6,449.3 M712.2,456.7L712.2,456.7 M719.6,456.7L719.6,456.7 M726.3,459.2
	L726.3,459.2 M714.7,468.2L714.7,468.2 M715.5,470.8L715.5,470.8 M722.9,364.1C725.3,362.7,723.1,366.9,722.9,364.1 M592.2,407.9
	L592.2,407.9 M589.8,408.7L589.8,408.7 M591.2,409.8l1.5-0.4c0,8.5-0.2,17,0,25.4h-1c-0.3,1.3-0.8,2.5-1.3,3.7c-2,1-2.5,3.3-3.5,5
	l-0.5-0.8c-1,0.4-2.1,0.5-3.1,0.2c0,1.9,3.1,0.1,4.1,0.7l-1.7,2.2l-1,0.3l1.5,0c-0.1,0.9-0.3,2.6-0.4,3.5c-0.8-0.5-1.7-0.7-2.6-0.6
	l2.4,1.8c-2,0-2.8,1.7-4,2.9c0.5,1.1,0.2,2.8,1.3,3.4c0-1.5,0-3-0.2-4.5c1.3,0.4,2.7,0.8,4,1.2l-2.5-0.3l-0.1,3.2l1.4,0.6
	c-0.4,0.2-1.2,0.5-1.5,0.7l-0.6,0.4c1.5,1,1.2,1.7-0.8,2.1l3.3,0.4c-0.9,0.1-1.7,0.1-2.6,0.1c-0.3,0.8-0.6,1.6-0.9,2.4
	c-0.5,1-1,2-1.5,3c1-0.5,2-1,3-1.5c-0.3-0.5-0.8-1.4-1.1-1.9c1-0.2,2-0.4,3-0.6c-0.5,1.1-0.8,2.2-1.2,3.4l1.1-0.2l1.4-0.2
	c-0.1,2.5,0.9,4.8,1.8,7c1.1-0.6,2.5-0.9,3.1-2.1c-0.1,0.9-0.1,1.8-0.1,2.8c-2.9-0.2-5.9,0.2-8.7-0.3c-3,0.7-5.9-0.8-8.9-0.7
	l-1.7,1.1c-2-1.1-4.5-0.7-6.6-0.1c-1.6-0.4-3.2-0.7-4.9-0.9c0.1-13.6-0.1-27.2,0.1-40.8c1.2,0.9,3.3,2.9,3.8,0.2l-0.3,1.4
	c2.1-0.4,4.1-1.4,5.6-2.9l-2.1-0.7l1.9-0.2c0.6-0.7,1.3-1.2,1.9-1.9c0.6-0.5,1.3-1,2-1.5c0.7-0.9,1.4-1.7,2-2.6l1.6,1.2
	c0.1-0.5,0.2-1.5,0.3-2c1.3,0.1,3.7-0.7,2.3-2.6l2.2,0.9l-1.8-1.6l1.9-0.4c-0.2-1.3,0.3-2.5,1.4-3.2c0.4-1.1,0.9-2.2,1.5-3.2
	c-0.1,1.3-0.2,2.5-0.3,3.8c1-1.1,1.8-2.3,2.7-3.5C588.8,411.7,590,410.8,591.2,409.8 M569.8,445.6c-0.5,1,1.1,2.2,1.9,1.5
	C572.1,446.1,570.6,444.9,569.8,445.6 M570.8,452.3C570.9,455.1,573.3,451.1,570.8,452.3 M580.4,459.2c0.7-0.6,0.9-1.6,0.6-2.4
	C579.7,456.2,578.9,459.1,580.4,459.2 M586,467.9c-0.9,0.3-2,1.2-2,2.2c1.1,0.2,2.2-0.5,2.6-1.5L586,467.9L586,467.9z" fill="#FFFFFF" />
<path class="st0" d="M636.9,268.9C639.4,267.6,637,271.7,636.9,268.9 M635.4,269.8L635.4,269.8 M635.8,271.9c1.4-0.4,2.5,2,3.9,0.6
	c0,0.5,0.1,1.5,0.2,2c-1.7-0.5-3.3-0.9-5-1.2L635.8,271.9 M627.9,276.3c1.2-0.6,2.5-1,3.8-1.3c2.1,1.4,1.6,4.1,1.5,6.3
	c0.3-0.9,0.7-1.8,1-2.7c0.4,0.5,1.2,1.4,1.6,1.9c-0.1-0.5-0.4-1.4-0.5-1.8c3.3-0.7,6.8-0.4,9.9,0.9c3.5,5.8,3.5,13,7.2,18.7
	c1.8,0,4-0.7,5.3,1c-1-0.2-2-0.4-3-0.6l-0.4,1c0.8,0.4,1.7,0.7,2.5,1.1l-2.4-0.2c0.1,0.8,0.3,2.3,0.3,3l2.4-0.7
	c-0.1,0.5-0.4,1.5-0.5,1.9l1.5-0.2c-1,1-1.8,2.6-0.6,3.7c1.5,1.4,1.1,3.5,1.3,5.4l1.7-1.9c0,0.5-0.1,1.6-0.1,2.2H659
	c0.8,1.3,1.5,2.7,1.1,4.2c1.2-0.1,2.3-0.2,3.5-0.3c0,0.5-0.1,1.4-0.1,1.8l-1.6-0.2c0,3-0.3,6,1.1,8.8c0.6,1.2,0.8,2.5,0.7,3.8
	c1.1,1,0.8,2.6,0.8,4l-1,1l1.9-0.6c-0.1,2.6,0,5.1,0.3,7.7c0.1-0.8,0.3-2.5,0.5-3.4c0.4,0.6,1.2,1.7,1.6,2.3l0,0c0-0.7,0-2.2,0-3
	l2,2.4l2-1.5c1.4-1,3.1-0.6,4.7-0.6l3.2-2.2c2.8,0.1,5.5-1.1,8-2.3c0.1-0.4,0.2-1,0.3-1.4l0.6,0c0,0.4,0,1.2,0,1.6
	c3.2-1.3,6.8-1.6,9.9-3.2c1.7-1.1,3.7-0.5,5.6-0.5c0.2-1.7,1.8-1.8,3.2-2.2c1.8-1.7,4.5-1.3,6.8-1.3l2-1.5l2.3,0.2
	c-0.6-2.8,2.8-2.4,4.2-1.1l1.8,0.1c1.8-1.2,3.9-1.4,5.2,0.6c-0.3-0.5-0.8-1.4-1.1-1.8c1.2-0.5,2.5-1,3.8-1.4c3,0,6,0.1,9,0.2
	l1.2-0.8l0.3-0.3c-0.1,0.3-0.2,0.9-0.3,1.1c2.3-0.2,4.5,1.2,6.8,0s5.7,1.3,7.3-1.2c0,0.3-0.1,1-0.1,1.3c1.8,0.3,2.5,2,3.3,3.4
	c0.4,0.9,0.8,1.8,1.1,2.7c-0.4,1.6-1,3.1-1.7,4.6c-2.8,3.6-7.6,4.5-10.5,7.8l-2.2,0.1c-1,1.2-2.1,2.4-3.2,3.5l0.1-2.1
	c-1.1,1.3-2.2,2.5-3.6,3.5c-1.5,0.5-2.9,1.3-4.2,2.3c-1.5,0.5-2,2-2.6,3.3l-1.5-1.5c-0.5,1.2-1,2.4-1.6,3.5l-2.5-0.3
	c0.1,0.3,0.3,1,0.4,1.3c-1.7,1-3.2,2.4-4.2,4.1c-0.3-0.1-0.9-0.4-1.2-0.5c-1.1,0.9-2.3,1.7-3.4,2.6c-1.6-0.2-3.2,0.5-4,1.9h-2
	c-0.4,0.9-0.1,2.5-1.5,2.4c-3.2-0.2-5.9,1.8-7.9,4.1c-1.3,0.6-3.5,0.6-3.2,2.7c-3.3,0.3-4.1,4.2-7,5.1l-0.4,2
	c-0.6,0-1.8,0.1-2.3,0.2c-0.2,0.8-0.3,1.5-0.5,2.3l-3.6,0.7c-0.2,1.8-1,3-3,2.2c0.2,1,0.4,1.9,0.6,2.9l-1.5-1.6
	c-0.4,1.6-2.1,3.7-0.6,5.2c0.1,3.7,1.1,7.4,2.9,10.7c1.1,1.4-0.3,4.6,2.2,4.3c0.3,3.6,0.9,7.3,3.2,10.2c0.2,1.4-0.3,3.1,0.9,4.1
	c2.3,7.8,5,15.5,6,23.5h0.8c-0.4,1.7,0.1,3.4,1.4,4.6c0,1.7,0.3,3.4,0.7,5c0.2,1.4,1.1,2.6,2.4,3.2c-0.5,0.8-0.9,1.7-1.3,2.6
	l0.8-0.4c0.3,1.1,0.7,2,1.4,2.9c0.4,1.3,1.2,2.5,2.2,3.4l-0.5,1.4l1.5-0.3c-0.3,1-0.2,2,0.3,2.9c0,1,0,2-0.1,3.1
	c1-1,2.4-1.1,3.8-1.2c0,1.6,0.2,4.2-2.2,3.7l1.2,0.9c0,1.6,0.1,3.2,0.3,4.8l2.2-0.1c-0.1,1.4-0.1,2.8-0.1,4.2c2.1,0,4.2-0.1,6.3,0
	c0,0.3,0,0.8,0,1l-2.1-0.1c-0.4,1.7-1.7,1.9-3.2,1.8c-0.1-0.6-0.3-1.7-0.4-2.3l-1.4,0.8c0.7,0.9,1.1,2.2,0.9,3.3
	c-0.5-0.4-1.5-1.2-2-1.6c-0.1,0.5-0.3,1.4-0.4,1.9c-0.3,0.2-1,0.5-1.3,0.7l2.4,0.1c-0.6,1.2-1.2,2.5-1.7,3.7l-1.6-1.6
	c-0.8,1.3-1.2,2.9-1,4.4l-1.3-1.8c-4.4,6.2-1.1,14.4-3.1,21.3c-1.3-5.8-0.4-11.8-0.6-17.6l-3.2-1.3c0.6-0.5,1.2-1,1.8-1.5l-2.1,0.5
	c-0.2-0.4-0.5-1.3-0.6-1.8c-1.2-0.5-2.5-0.8-3.7-1c-1.1-0.5-2.2-1-3.3-1.5c0.5-0.7,0.9-1.3,1.4-2c-1.1-2.2-3.3-4.2-2.9-6.9l-1.2-0.1
	c0.1-0.3,0.4-1,0.5-1.3c-0.7-0.5-1.3-0.9-2-1.4l1.1-1.7h-1.8c-0.1-1.5,0.3-3,1.1-4.2l-1.7,0.2c-0.2-1.3,0.7-3.2-1-3.7
	c1.2-1.7,0.9-3.6,0.2-5.4l-1.2-0.2c1.6-0.6,1.2-2.3,1.3-3.6l-2.2-1.1l2.3,0.1c-0.6-0.9-1.1-1.7-1.7-2.6c-0.7-2.5-1.1-5-1.2-7.6
	c-0.4,0-1.3,0.2-1.7,0.2c0.1-1.1,0.2-2.1,0.3-3.2l-1.7-2.1v-2c-0.5-0.7-1.1-1.3-1.7-2c0.1-2.1-0.2-4.2-0.7-6.3
	c-0.3,0.6-0.9,1.7-1.2,2.2c0.2-2.4-0.8-4.7-0.8-7.1c-0.4-1.3-0.7-2.6-0.8-4c-2.1-3.3-2.3-7.1-3.3-10.8c-0.9-1.4-1.5-3-1.8-4.6
	c-0.4-1.2-0.7-2.4-0.9-3.6c-0.4-0.6-0.8-1.3-1.2-1.9c-0.1-1.6-0.7-3.1-1.8-4.3c0-2.3-0.2-4.7-1.5-6.6c0-1.4-0.6-2.7-1.6-3.6
	c-0.1-0.4-0.2-1.2-0.3-1.6c-1.4-1.5-0.5-3.6-0.9-5.4c-0.6-2.1-1.3-4.2-2.3-6.1c-0.1-0.4-0.2-1.3-0.3-1.8c-0.7-1.5-1.3-3.1-1.7-4.8
	l-1.8,0.5l1.7-1.5c-3.2-0.5-2.9-4.5-3.6-6.9c-1.4,1.4-2.3,3.2-2.4,5.2c-0.2,4.6-0.2,9.2-0.3,13.8l-1.4,1c-0.2-5.9-0.2-11.8-0.1-17.7
	c-1.5,0.8-3,1.4-4.7,1.7c-0.1,2.3,0,4.5,0.3,6.8c-1.1,0.3-2.4,0.3-3.5,0.1l2-0.1c-0.3-1.8-0.7-3.6-1-5.4l-2.1,2.3l-1.5-0.8
	c-0.5,0.7-0.9,1.4-1.3,2.1c-1.8-0.5-3.7,0.5-4.3,2.4c0,0.1-0.1,0.3-0.1,0.4l-1.2-0.5c-0.4,0.9-1,1.7-1.8,2.3c0,1.3,0.1,2.6,0.2,3.9
	l-0.9-0.2c0.1,3.4-1.7,6.3-2.7,9.4c0.1,0.4,0.2,1.2,0.3,1.7c-0.5,0.7-1.1,1.3-1.6,2c0.9,0.1,1.8,0.2,2.7,0.3c-1,1-2.1,1.9-3.1,2.9
	c0,0.8,0.1,1.6,0.1,2.4c3,0.2,0.5,3.7,2.7,4.6c-0.3,0.5-0.5,1.1-0.8,1.6l-1.7-0.2c0.1-0.9-0.4-1.8-1.3-2c-0.4,1.4-0.6,2.8-0.8,4.2
	c0.4,0.1,1.2,0.4,1.7,0.5l-2.3,1c-0.4,5.6-1.2,11.1-2.5,16.5c-0.4,1.7-0.4,3.5,1.1,4.6l-1.3-0.1c-0.3,1.9-0.5,3.9-0.7,5.9l2.4-0.2
	c-0.4,0.2-1.1,0.5-1.5,0.7c-0.8,3.2,0.2,6.2,1.1,9.3l2.1,0.2l-2.4,0.2c0.2,0.3,0.7,1,1,1.3c-1.1,0.3-2.3,0.6-3.4,0.8
	c0.1,2.7,0.1,5.5-0.2,8.2l1.4,2c-0.9,0.5-1.8,1-2.7,1.5c-0.8,1.1-1.7,2.1-2.7,3c-0.3,0.9-0.6,1.8-1,2.7c-2.1,0.6-4.2,1.2-6.3,1.8
	c-0.7,1-1.3,2.1-1.9,3.1c0-0.9-0.1-1.8-0.1-2.8c-1.3,0.7-2.7,1-4.2,1.2c-0.8,0.6-1.2,1.7-1.8,2.5c0.1-0.6,0.4-1.9,0.5-2.5
	c-1.3-0.6-2.6-0.9-4-1c-0.9-0.5-1.8-1.1-2.7-1.6l1.8-0.6c-0.5-0.6-1-1.1-1.5-1.7h-2.7c-0.6-1.1-0.2-2.9-1.3-3.5c-0.4,1-0.5,2-0.5,3
	l-1.3,1.1l-1.1,0.2c0.4-1.1,0.7-2.3,1.2-3.4c0.8-1.5,3.4-2.6,1-4c0.3-1.1,0.6-2.3,0.8-3.4c0.5-1.3-1.2-2.5-0.5-3.8l1.8-0.1
	c-0.1-0.2-0.2-0.8-0.3-1c1.2-3,1.7-6.2,1.7-9.4c0.8-0.5,1.6-1.1,2.4-1.6c0-1,0-2,0.1-2.9l1.8-0.6c0-0.6,0-1.9,0-2.5
	c0.7-1.1,1-2.5,0.8-3.9l1.2,0.2c-0.2-0.4-0.5-1.3-0.6-1.7c2.7-2.8,2.4-7,2.8-10.6c0.7-0.9,1-2.1,1-3.2c1.3-0.8,1.1-2.5,1.2-3.8
	c0.1-2,0.4-4.1,0.9-6c0.4-1.2,1.1-2.3,1.9-3.2l-1.1,0.4c0.5-1.8,0.9-3.6,1.2-5.4c-0.4,0.9-0.7,1.8-1,2.7c0-1.4,0-2.7,0.1-4.1
	l-3.2,1.2l-2.6,2c0,0.6,0.2,1.9,0.2,2.5l-1.7-2.3l-0.6,2.3c-1,0.4-2,0.8-3,1.2c0,0.7,0,2.1-0.1,2.7l-1.4-0.5c-1,1.2-2.2,2.3-3.6,3
	c-0.8,1.2-1.8,2.2-2.8,3.2c-0.1-0.7-0.4-2.1-0.5-2.8c-0.3,0.8-0.5,1.5-0.8,2.3c-0.7,1.2-1.4,2.4-2,3.6l-1.5-2.3
	c0.1,0.7,0.3,2.1,0.4,2.8c-1.6,0.4-3.1,1-4.6,1.8l2.3-0.2c-0.2,0.9-0.5,1.8-0.7,2.6l-1.6-1c-1.3,2-2.9,3.8-4.8,5.2
	c-1.4,1.1-1.6,3.3-3.3,4.1c-2.3,1.5-5.2,0.7-7.8,1c-2.4-1.8-4.9-4.1-8.1-3.5l1.7-1.2l-1.6-0.5c2.2-0.6,1.7-4.1,0.2-5.2l0.8,0.4
	c0.1-3,2.9-4.7,3.6-7.5c1-1,2.1-2,3.2-3c1.4-0.2,2.5-0.8,2.7-2.3c0.2-0.6,0.6-1.8,0.8-2.4c1.7-1,3.2,3.7,2.2-0.6
	c0.5-0.2,1.5-0.7,2-0.9l1.7,0.2c1.9-1.8,3.9-3.5,5.7-5.4c2.2-1.7,4.7-3,7.5-3.5l-2.6-0.3c0.7-1.4,2.3-1.2,3.5-1.9
	c4.8-2.7,8.1-7.3,13.3-9.3c1.2-0.2,0.7-1.8,1.1-2.6l2.4-0.3c0-1.1,0-2.2,0-3.3l3.1,0.5c0.6-1.6,2.4-1.7,3.7-2.4
	c-0.5-0.6-1-1.3-1.5-2c1.3-0.1,2.7,0.1,4-0.4c1.4-1.3,2.2-3,2.4-4.8l1.6,0.1c-0.3-1.5-0.7-3.2,1.1-3.9l-1.5-1c0.2-0.2,0.8-0.7,1-0.9
	c-0.1-2,0-4,0.3-6c-2.7,0.9-0.3-0.9,0.3-1.8c0.2-0.8,0.5-2.4,0.7-3.1l-2.5-0.5c0.9-0.6,2-1,3.2-1.2c-0.1-1.5-0.9-4,1.5-4
	c-0.5-2.7,1.3-5.4-0.4-7.9c0.2-0.4,0.4-1.2,0.6-1.6c1-0.8,1.7-1.8,2-3c0.2-2.6,0-5.2,0.9-7.7c0-0.5-0.1-1.6-0.2-2.2
	c0.2-1.4,0.5-2.9,0.7-4.3c0.7-1.5,1.3-3,1.9-4.5c0.2-1.7,0.7-3.4,1.3-5.1c1.3-1.3,1.6-3.2,0.7-4.8l2-0.4l-2.1-1.1
	c-1.3,0-2.6-0.6-3.4-1.6l2-0.2l-0.5-2h0.9c-0.1,0.4-0.2,1.2-0.3,1.6c1.3,0.5,2.6,0.9,4,1.3c-0.2-1-0.6-2-1.3-2.7l2-1
	c-0.4-1-0.8-2.1-1.1-3.1c1.7,0.1,3.4-0.3,5-1c-2-1.2-4.2-1.8-6.5-1.9c1.8-1.7,4.4-1.5,6.6-2.2c-0.8-0.7-1.7-1.4-2.6-2
	c0.5-0.8,1.1-1.5,1.6-2.2c-1.4,0.2-3.3,1.1-4-0.7c0.3-1.3,2.4-0.3,3.4-0.7c-0.1-0.7-0.4-2.2-0.5-2.9c1.2-0.9,3.2-1.3,2.7-3.5
	l-3.1,1.7C628.4,276.6,628.1,276.4,627.9,276.3 M630.3,292.9L630.3,292.9 M737,324.3C737.2,327,739.4,322.9,737,324.3 M617.6,333.5
	C616.4,336,620.4,333.7,617.6,333.5 M639.8,335c-0.3,0.6-0.8,1.7-1,2.3c0.1,0.3,0.2,1,0.3,1.4l-2-0.4c-0.1,1.6,0.7,3.5-0.6,4.9
	c0,0.6,0.2,1.9,0.2,2.5l-1.1,1.1c0,0.6,0.1,1.8,0.2,2.4l-1.4,0.3l1.3,0.1c0.1,1.7,0.2,3.5-1.6,4.3c0.1,0.8,0.2,1.6,0.4,2.4l2.8-0.3
	c0-0.7,0.1-2,0.1-2.7c1,0.8,2.5,1.8,3-0.2l1.3,1.6c-0.2-0.5-0.5-1.6-0.7-2.2l2.4,0.1l-0.3,1.2c1.5-1.6,3.3-3,5.2-4.1
	c-0.4-1.4-0.7-2.9-1-4.4c-0.5-0.6-1-1.3-1.5-1.9c0-1.3,0-2.5,0-3.8c-0.8-0.8-1.5-1.8-1.9-2.8l-2.2,0.4c0.1-0.5,0.3-1.5,0.3-2
	L639.8,335 M707.9,346.3c-1.2-0.4-2.5,0-3.3,1l-0.6-1.9c-0.2,1.7-0.2,3.3-0.1,5c1.2,0,2.3-0.8,3.5-1.2c1.3-1,2.6-1.9,4.1-2.5
	C713,344.4,708.3,344.5,707.9,346.3 M695.7,346.7L695.7,346.7 M699.7,347.4c0.8,0.9,2.1,1.4,3.3,1.2
	C703.9,346.8,700.5,345.9,699.7,347.4 M696,348.2c0,0.3,0,0.8-0.1,1.1C698,350.9,698.2,346.2,696,348.2 M693.9,350.9
	c0.2,1.5,1.4,2.6,2.2,3.8c1.7-0.1,3.7-1.1,3-3.2c0.2,0.3,0.6,1,0.8,1.4l3.4-0.6c-0.3-0.7-0.9-2.2-1.2-2.9l-0.5,2.1l-2-1.2l-2,0.9
	C696.4,351.1,695.1,351,693.9,350.9 M689,352.6l0.3,1.7c-0.8-0.6-1.2-1.6-1-2.5c-1.3-0.2-2.7,0.3-3.5,1.4c-1.1,0.4-2.3,0.8-3.4,1.2
	c-0.9,0.3-1.9,0.6-2.8,0.8c-0.3,0.7-0.6,1.3-0.8,2v-1.5c-1.7,0.1-3.4,0.2-5,0.4c0.2,0.6,0.6,1.7,0.8,2.3c-0.4,0.5-0.7,1-1.1,1.4
	c-1.5,0.7-0.7,2.7,0.5,3.3l-1.1,1.5c0.9,1.9,1.6,3.8,2.2,5.8c0.2,1.1,0.5,2.2,0.7,3.3l1.5-2.2l2.3,0.1c0-0.6-0.1-1.8-0.2-2.5
	l2.1-0.4c-0.1-0.7-0.3-1.5-0.4-2.2l2.3,0.2c1.1-1,4-3.7,0.7-3.9c0.6-1.1,1.1-2.2,1.4-3.4c1.1,0.6,2.3,1.1,3.5,1.6
	c1.6-0.8,3.1-1.9,4.7-2.7c0.2-0.5,0.5-1.5,0.7-2l3,0.5c-0.4-0.9-0.7-2-1.7-2.4c-0.5-0.5-1.6,0.2-1.7-0.6l0.9-2.1
	C692.3,351.7,690.6,352,689,352.6 M658.4,289.6L658.4,289.6 M622.4,290.2c1.2-0.3,1.6,0.1,1.2,1.2
	C622.4,291.8,622,291.4,622.4,290.2 M653.6,292.2c0.9-0.8,1.5-0.6,1.7,0.5C654.3,293.6,653.8,293.4,653.6,292.2 M653.5,293.8
	L653.5,293.8 M665.9,296.4L665.9,296.4 M839.2,299.6C841.9,299.4,838.1,302.2,839.2,299.6 M622.2,302.6c1.4-0.4,1.8,0,1.4,1.4
	C622.2,304.4,621.8,303.9,622.2,302.6 M665.9,312L665.9,312 M617.9,319.4L617.9,319.4 M612.9,326.3c2-2.2,6.2-0.4,4.7,2.6
	c-0.7,1.1-2.1,1.9-3.3,1C612.7,329.5,613.1,327.6,612.9,326.3 M702.3,331L702.3,331 M697.2,352.3L697.2,352.3 M711.3,370.7
	L711.3,370.7 M685.7,395.4L685.7,395.4 M626.2,402.7C628.4,401.2,626.6,405.5,626.2,402.7 M694.7,403.7L694.7,403.7 M585.6,411.2
	L585.6,411.2 M771.6,426.1L771.6,426.1 M758.3,428.8C761.1,428.8,757.1,431.3,758.3,428.8 M552.6,432.8L552.6,432.8 M709.7,435.2
	L709.7,435.2 M747.7,435.2L747.7,435.2 M700.6,436.1L700.6,436.1 M588.2,443.5L588.2,443.5 M705.6,445L705.6,445 M714.6,449.3
	L714.6,449.3 M570.9,452.4C573.4,451.1,571,455.1,570.9,452.4 M719.6,456.7L719.6,456.7 M726.3,459.2L726.3,459.2 M707.1,465.8
	c-1.2-0.7-1.2-1.4,0-2.1C708.3,464.3,708.3,465,707.1,465.8 M114,464.8c0.6-1,2.5,0,1.6,1C114.9,466.8,113.1,465.8,114,464.8
	 M613.2,464.6L613.2,464.6 M619.6,464.9L619.6,464.9 M714.7,468.2L714.7,468.2 M582.4,469.1L582.4,469.1 M715.5,470.8L715.5,470.8
	 M126.9,471.6L126.9,471.6 M570.9,479L570.9,479 M710.9,478.7c1.2-0.2,1.6,0.2,1.2,1.3C710.9,480.3,710.5,479.9,710.9,478.7
	 M588.2,487.3L588.2,487.3 M707.8,497.9c0.2-1.7,1.1-3.1,2.5-4c0.5,1,1,1.9,1.5,2.9c-0.9-0.1-2.6-0.3-3.5-0.4c0.5,1,1.2,2,1.9,2.8
	C709.5,498.7,708.6,498.3,707.8,497.9 M728.5,496.2c1.2-0.4,1.6,0,1.2,1.2C728.6,497.7,728.1,497.3,728.5,496.2 M661.2,497
	c1-0.7,1.6-0.5,1.6,0.6C661.8,498.4,661.2,498.2,661.2,497 M698.2,499.6L698.2,499.6 M706.8,499.3c0.3,0.4,0.7,0.9,0.9,1.3
	c-1.3,0.7-2.8,1.2-4.3,1.2C704.9,501.5,706.1,500.6,706.8,499.3 M693,504.8C695.7,504.6,692,507.3,693,504.8 M709.6,505.5
	L709.6,505.5 M699,527c1.1-0.9,2.3,1.1,1.3,1.9C699.3,529.6,697.9,527.8,699,527z" fill="#FFFFFF"/>
</svg>
